<?xml version="1.0" encoding="UTF-8" standalone="no"?>
<!-- Created with Inkscape (http://www.inkscape.org/) -->
<svg
   xmlns:dc="http://purl.org/dc/elements/1.1/"
   xmlns:cc="http://web.resource.org/cc/"
   xmlns:rdf="http://www.w3.org/1999/02/22-rdf-syntax-ns#"
   xmlns:svg="http://www.w3.org/2000/svg"
   xmlns="http://www.w3.org/2000/svg"
   xmlns:xlink="http://www.w3.org/1999/xlink"
   xmlns:sodipodi="http://sodipodi.sourceforge.net/DTD/sodipodi-0.dtd"
   xmlns:inkscape="http://www.inkscape.org/namespaces/inkscape"
   width="900"
   height="800"
   id="svg2"
   sodipodi:version="0.32"
   inkscape:version="0.45.1"
   sodipodi:docbase="/media/files"
   sodipodi:docname="technocase.svg"
   inkscape:output_extension="org.inkscape.output.svg.inkscape"
   version="1.0"
   inkscape:export-filename="/media/files/technocase.png"
   inkscape:export-xdpi="90"
   inkscape:export-ydpi="90">
  <sodipodi:namedview
     id="base"
     pagecolor="#000000"
     bordercolor="#666666"
     borderopacity="1.0"
     gridtolerance="10000"
     guidetolerance="10"
     objecttolerance="10"
     inkscape:pageopacity="1"
     inkscape:pageshadow="2"
     inkscape:zoom="1"
     inkscape:cx="437.70825"
     inkscape:cy="686.95836"
     inkscape:document-units="px"
     inkscape:current-layer="layer1"
     inkscape:window-width="1024"
     inkscape:window-height="693"
     inkscape:window-x="0"
     inkscape:window-y="25"
     width="900px"
     height="800px" />
  <defs
     id="defs4">
    <linearGradient
       id="linearGradient10797">
      <stop
         style="stop-color:#949404;stop-opacity:1;"
         offset="0"
         id="stop10799" />
      <stop
         style="stop-color:#ffff00;stop-opacity:1;"
         offset="1"
         id="stop10801" />
    </linearGradient>
    <linearGradient
       id="linearGradient10789">
      <stop
         style="stop-color:#800000;stop-opacity:1;"
         offset="0"
         id="stop10791" />
      <stop
         style="stop-color:#380000;stop-opacity:1;"
         offset="1"
         id="stop10793" />
    </linearGradient>
    <linearGradient
       id="linearGradient9744">
      <stop
         style="stop-color:#cbc7c7;stop-opacity:1;"
         offset="0"
         id="stop9746" />
      <stop
         style="stop-color:#f9f9f9;stop-opacity:0;"
         offset="1"
         id="stop9748" />
    </linearGradient>
    <linearGradient
       id="linearGradient9236">
      <stop
         offset="0"
         id="stop9238"
         style="stop-color:#6e6e6e;stop-opacity:1;" />
      <stop
         offset="1"
         id="stop9240"
         style="stop-color:#3d3d3d;stop-opacity:1;" />
    </linearGradient>
    <linearGradient
       id="linearGradient8148">
      <stop
         offset="0"
         id="stop8150"
         style="stop-color:#333333;stop-opacity:1;" />
      <stop
         offset="1"
         id="stop8152"
         style="stop-color:#242424;stop-opacity:1;" />
    </linearGradient>
    <linearGradient
       id="linearGradient10259">
      <stop
         offset="0"
         id="stop10261"
         style="stop-color:#676767;stop-opacity:1;" />
      <stop
         offset="1"
         id="stop10263"
         style="stop-color:#363636;stop-opacity:1;" />
    </linearGradient>
    <linearGradient
       id="linearGradient7292">
      <stop
         offset="0"
         id="stop7294"
         style="stop-color:#f2f2f2;stop-opacity:1;" />
      <stop
         offset="1"
         id="stop7296"
         style="stop-color:#f2f2f2;stop-opacity:0" />
    </linearGradient>
    <linearGradient
       id="linearGradient4332">
      <stop
         offset="0"
         id="stop4334"
         style="stop-color:#908c8c;stop-opacity:1;" />
      <stop
         offset="1"
         id="stop4336"
         style="stop-color:#d5cccc;stop-opacity:1;" />
    </linearGradient>
    <linearGradient
       id="linearGradient3346">
      <stop
         offset="0"
         id="stop3348"
         style="stop-color:#242424;stop-opacity:1;" />
      <stop
         offset="1"
         id="stop3350"
         style="stop-color:#989898;stop-opacity:1;" />
    </linearGradient>
    <linearGradient
       id="linearGradient2367">
      <stop
         offset="0"
         id="stop2369"
         style="stop-color:#410000;stop-opacity:1;" />
      <stop
         offset="1"
         id="stop2371"
         style="stop-color:#9e0000;stop-opacity:1;" />
    </linearGradient>
    <linearGradient
       id="linearGradient14030">
      <stop
         offset="0"
         id="stop14032"
         style="stop-color:#9a0000;stop-opacity:1;" />
      <stop
         offset="0.35135135"
         id="stop16058"
         style="stop-color:#8a0404;stop-opacity:1;" />
      <stop
         offset="1"
         id="stop14034"
         style="stop-color:#510000;stop-opacity:1;" />
    </linearGradient>
    <linearGradient
       id="linearGradient13040">
      <stop
         offset="0"
         id="stop13042"
         style="stop-color:#010101;stop-opacity:1;" />
      <stop
         offset="1"
         id="stop13044"
         style="stop-color:#f9f9f9;stop-opacity:1;" />
    </linearGradient>
    <linearGradient
       id="linearGradient11030">
      <stop
         offset="0"
         id="stop11032"
         style="stop-color:#d0d5d8;stop-opacity:1;" />
      <stop
         offset="1"
         id="stop11034"
         style="stop-color:#919191;stop-opacity:0.72156864;" />
    </linearGradient>
    <radialGradient
       inkscape:collect="always"
       id="radialGradient7270"
       r="56.046519"
       gradientTransform="matrix(1.1732759,0,0,1.1732759,130.79807,-103.29377)"
       cx="93.5"
       cy="-60.941597"
       gradientUnits="userSpaceOnUse"
       xlink:href="#linearGradient4332"
       fy="-60.941597"
       fx="93.5" />
    <linearGradient
       inkscape:collect="always"
       id="linearGradient7272"
       x1="122.63483"
       y1="11.273686"
       gradientTransform="matrix(1.0976801,0,0,1.0976801,137.86629,-106.02563)"
       x2="50.053196"
       gradientUnits="userSpaceOnUse"
       xlink:href="#linearGradient2367"
       y2="-104.04056" />
    <linearGradient
       inkscape:collect="always"
       id="linearGradient7274"
       x1="61.553806"
       y1="-77.013786"
       gradientTransform="matrix(1.1857892,0,0,1.1857923,141.42751,-111.63562)"
       x2="133.87987"
       gradientUnits="userSpaceOnUse"
       xlink:href="#linearGradient3346"
       y2="8.9571047" />
    <linearGradient
       inkscape:collect="always"
       id="linearGradient7276"
       x1="167.87057"
       y1="45.73513"
       gradientTransform="matrix(0.9943931,0,0,0.9943618,133.69161,-99.447487)"
       x2="49.030914"
       gradientUnits="userSpaceOnUse"
       xlink:href="#linearGradient3346"
       y2="-81.646942" />
    <linearGradient
       inkscape:collect="always"
       id="linearGradient10233"
       x1="167.87057"
       y1="45.73513"
       gradientTransform="matrix(1.6916595,0,0,1.6916063,161.87389,-143.8401)"
       x2="49.030914"
       gradientUnits="userSpaceOnUse"
       xlink:href="#linearGradient3346"
       y2="-81.646942" />
    <linearGradient
       inkscape:collect="always"
       id="linearGradient10235"
       x1="61.553806"
       y1="-77.013786"
       gradientTransform="matrix(2.0172622,0,0,2.0172675,175.03418,-164.57453)"
       x2="133.87987"
       gradientUnits="userSpaceOnUse"
       xlink:href="#linearGradient3346"
       y2="8.9571047" />
    <radialGradient
       inkscape:collect="always"
       id="radialGradient10237"
       r="56.046519"
       gradientTransform="matrix(1.9959746,0,0,1.9959746,156.9514,-150.38338)"
       cx="93.5"
       cy="-60.941597"
       gradientUnits="userSpaceOnUse"
       xlink:href="#linearGradient4332"
       fy="-60.941597"
       fx="93.5" />
    <linearGradient
       inkscape:collect="always"
       id="linearGradient10239"
       x1="122.63483"
       y1="11.273686"
       gradientTransform="matrix(1.8673712,0,0,1.8673712,168.97584,-155.03082)"
       x2="50.053196"
       gradientUnits="userSpaceOnUse"
       xlink:href="#linearGradient2367"
       y2="-104.04056" />
    <radialGradient
       inkscape:collect="always"
       id="radialGradient10251"
       r="56.046519"
       gradientTransform="matrix(2.0805628,0,0,2.0805628,217.79285,5.5359388)"
       cx="93.5"
       cy="-60.941597"
       gradientUnits="userSpaceOnUse"
       xlink:href="#linearGradient4332"
       fy="-60.941597"
       fx="93.5" />
    <linearGradient
       inkscape:collect="always"
       id="linearGradient8154"
       x1="128"
       y1="49"
       x2="128"
       gradientUnits="userSpaceOnUse"
       xlink:href="#linearGradient8148"
       y2="77" />
    <clipPath
       id="clipPath9217"
       clipPathUnits="userSpaceOnUse">
      <rect
         id="rect9219"
         x="0"
         y="77"
         width="900"
         height="200"
         style="opacity:1;fill:#ffffff;fill-opacity:1;stroke:none;stroke-width:1;stroke-linecap:round;stroke-linejoin:round;stroke-miterlimit:4;stroke-dasharray:none;stroke-dashoffset:0;stroke-opacity:1" />
    </clipPath>
    <linearGradient
       inkscape:collect="always"
       id="linearGradient9223"
       x1="128"
       y1="49"
       x2="128"
       gradientUnits="userSpaceOnUse"
       xlink:href="#linearGradient8148"
       y2="77" />
    <linearGradient
       inkscape:collect="always"
       id="linearGradient9242"
       x1="92"
       y1="611"
       x2="92"
       gradientUnits="userSpaceOnUse"
       xlink:href="#linearGradient9236"
       y2="706" />
    <linearGradient
       inkscape:collect="always"
       xlink:href="#linearGradient9744"
       id="linearGradient9750"
       x1="142"
       y1="292"
       x2="142"
       y2="334.04758"
       gradientUnits="userSpaceOnUse" />
    <radialGradient
       inkscape:collect="always"
       xlink:href="#linearGradient4332"
       id="radialGradient9787"
       gradientUnits="userSpaceOnUse"
       gradientTransform="matrix(0.8375534,0,0,0.8375534,102.1149,-174.74006)"
       cx="93.5"
       cy="-60.941597"
       fx="93.5"
       fy="-60.941597"
       r="56.046519" />
    <linearGradient
       inkscape:collect="always"
       xlink:href="#linearGradient8148"
       id="linearGradient10775"
       gradientUnits="userSpaceOnUse"
       x1="128"
       y1="49"
       x2="128"
       y2="77" />
    <linearGradient
       inkscape:collect="always"
       xlink:href="#linearGradient8148"
       id="linearGradient10786"
       gradientUnits="userSpaceOnUse"
       x1="128"
       y1="49"
       x2="128"
       y2="77" />
    <linearGradient
       inkscape:collect="always"
       xlink:href="#linearGradient10789"
       id="linearGradient10795"
       x1="748.75"
       y1="46.5"
       x2="748.75"
       y2="74.018173"
       gradientUnits="userSpaceOnUse" />
    <linearGradient
       inkscape:collect="always"
       xlink:href="#linearGradient10797"
       id="linearGradient10803"
       x1="164"
       y1="83"
       x2="165"
       y2="194"
       gradientUnits="userSpaceOnUse" />
  </defs>
  <metadata
     id="metadata7">
    <rdf:RDF>
      <cc:Work
         rdf:about="">
        <dc:format>image/svg+xml</dc:format>
        <dc:type
           rdf:resource="http://purl.org/dc/dcmitype/StillImage" />
      </cc:Work>
    </rdf:RDF>
  </metadata>
  <g
     inkscape:groupmode="layer"
     id="layer1"
     inkscape:label="Layer 1">
    <rect
       id="rect7282"
       x="0"
       y="19.11319"
       width="900"
       height="700"
       ry="8"
       rx="8"
       style="opacity:1;fill:url(#linearGradient9242);fill-opacity:1.0;stroke:none;stroke-width:12.77353096;stroke-linecap:round;stroke-linejoin:round;stroke-miterlimit:4;stroke-dasharray:none;stroke-dashoffset:0;stroke-opacity:1" />
    <g
       transform="matrix(0.9593436,0,0,0.9593436,-26.24613,-77.628314)"
       id="g10241">
      <path
         id="path6068"
         sodipodi:cx="93.5"
         sodipodi:cy="-36.137817"
         transform="matrix(0.5238427,0,0,0.5201209,24.270748,82.435097)"
         d="M 145 -36.137817 A 51.5 51.5 0 1 1  42,-36.137817 A 51.5 51.5 0 1 1  145 -36.137817 z"
         sodipodi:type="arc"
         style="fill:url(#radialGradient10251);fill-opacity:1;stroke:#d40000;stroke-width:11.12077332;stroke-linecap:round;stroke-miterlimit:4;stroke-dasharray:none;stroke-dashoffset:0;stroke-opacity:1"
         sodipodi:ry="51.5"
         sodipodi:rx="51.5" />
      <path
         d="M 73.607991,84.867994 L 67.773509,72.476578 L 57.177608,77.323156 L 64.22157,48.269376 L 62.753485,44.090935 L 68.508333,49.564541 L 68.389278,62.33628 L 76.464531,60.403817 L 73.607991,84.867994 z "
         id="path4340"
         style="opacity:0.3;fill:#000000;fill-opacity:1;fill-rule:evenodd;stroke:#000000;stroke-width:1.35769856;stroke-linecap:butt;stroke-linejoin:round;stroke-miterlimit:4;stroke-dasharray:none;stroke-opacity:1"
         sodipodi:nodetypes="ccccccccc" />
      <path
         d="M 73.607991,85.369 L 67.773509,72.977587 L 57.177608,77.824164 L 64.22157,48.770384 L 62.753485,44.591943 L 68.508333,50.06555 L 68.389278,62.837288 L 76.464531,60.904825 L 73.607991,85.369 z "
         id="path6078"
         style="fill:#d40000;fill-opacity:1;fill-rule:evenodd;stroke:#d40000;stroke-width:1.35769856;stroke-linecap:butt;stroke-linejoin:round;stroke-miterlimit:4;stroke-dasharray:none;stroke-opacity:1"
         sodipodi:nodetypes="ccccccccc" />
      <path
         d="M 64.418692,43.129854 L 70.987994,48.716518 L 70.630829,59.334797 L 78.726574,57.58221 L 75.512089,84.785754 L 87.179487,50.962495 L 75.27398,53.208473 L 75.869253,46.943381 L 64.418692,43.129854 z "
         id="path5311"
         style="opacity:0.3;fill:none;fill-opacity:1;fill-rule:evenodd;stroke:#000000;stroke-width:1.35769856;stroke-linecap:round;stroke-linejoin:round;stroke-miterlimit:4;stroke-dasharray:none;stroke-opacity:1"
         sodipodi:nodetypes="ccccccccc" />
      <path
         d="M 64.418692,43.630862 L 70.987994,49.217526 L 70.630829,59.835806 L 78.726574,58.083218 L 75.512089,85.286764 L 87.179487,51.463503 L 75.27398,53.709481 L 75.869253,47.44439 L 64.418692,43.630862 z "
         id="path7051"
         style="fill:#000000;fill-opacity:1;fill-rule:evenodd;stroke:#000000;stroke-width:1.35769856;stroke-linecap:round;stroke-linejoin:round;stroke-miterlimit:4;stroke-dasharray:none;stroke-opacity:1"
         sodipodi:nodetypes="ccccccccc" />
      <path
         id="path2375"
         sodipodi:cx="93.5"
         sodipodi:cy="-36.137817"
         transform="matrix(0.4731239,0,0,0.4697579,29.012953,80.615085)"
         d="M 145 -36.137817 A 51.5 51.5 0 1 1  42,-36.137817 A 51.5 51.5 0 1 1  145 -36.137817 z"
         sodipodi:type="arc"
         style="fill:none;fill-opacity:1;stroke:#000000;stroke-width:3.89912987;stroke-linecap:round;stroke-miterlimit:4;stroke-dasharray:none;stroke-dashoffset:0;stroke-opacity:1"
         sodipodi:ry="51.5"
         sodipodi:rx="51.5" />
      <path
         d="M 96.379884,63.798558 C 96.379884,76.47552 72.665575,40.027162 50.120199,63.798558 C 49.83285,51.124852 60.482369,40.833047 73.250041,40.833047 C 86.017713,40.833047 96.379884,51.121595 96.379884,63.798558 z "
         id="path5313"
         style="opacity:0.30049259;fill:#ffffff;fill-opacity:1;stroke:none;stroke-width:2.74922395;stroke-linecap:round;stroke-miterlimit:4;stroke-dashoffset:0;stroke-opacity:1"
         sodipodi:nodetypes="ccsc" />
      <path
         id="path6287"
         sodipodi:cx="93.5"
         sodipodi:cy="-36.137817"
         transform="matrix(0.578254,0,0,0.5741637,19.183297,84.388084)"
         d="M 145 -36.137817 A 51.5 51.5 0 1 1  42,-36.137817 A 51.5 51.5 0 1 1  145 -36.137817 z"
         sodipodi:type="arc"
         style="fill:none;fill-opacity:1;stroke:#000000;stroke-width:3.19017863;stroke-linecap:round;stroke-miterlimit:4;stroke-dasharray:none;stroke-dashoffset:0;stroke-opacity:1"
         sodipodi:ry="51.5"
         sodipodi:rx="51.5" />
    </g>
    <text
       sodipodi:linespacing="125%"
       x="78.691704"
       y="-5.091217"
       id="text7278"
       xml:space="preserve"
       style="font-size:26.44286728px;font-style:oblique;font-variant:normal;font-weight:bold;font-stretch:normal;text-align:start;line-height:125%;writing-mode:lr-tb;text-anchor:start;fill:#d40000;fill-opacity:1;stroke:none;stroke-width:1px;stroke-linecap:butt;stroke-linejoin:miter;stroke-opacity:1;font-family:Bitstream Vera Sans"><tspan
         y="-5.091217"
         id="tspan7280"
         x="78.691704"
         sodipodi:role="line">TECHNOCASE</tspan></text>
    <path
       id="text7165"
       d="M 127.84375 -24.71875 C 126.0103 -24.71873 124.31117 -24.370671 122.71875 -23.65625 C 121.13493 -22.941793 119.78386 -21.919319 118.65625 -20.59375 C 117.70079 -19.466126 116.95939 -18.212362 116.46875 -16.84375 C 115.97811 -15.483723 115.75 -14.04077 115.75 -12.5 C 115.75 -12.311727 115.77123 -12.119818 115.78125 -11.9375 C 117.47717 -12.0338 119.24157 -12.142079 121 -12.25 C 120.96802 -12.516601 120.9375 -12.771248 120.9375 -13.0625 C 120.93749 -15.360747 121.62594 -17.280318 122.96875 -18.8125 C 124.31154 -20.344656 125.98036 -21.124984 127.96875 -21.125 C 128.92419 -21.124984 129.82128 -20.980147 130.65625 -20.6875 C 131.49118 -20.394823 132.29864 -19.909599 133.125 -19.28125 L 133.9375 -23.28125 C 132.89595 -23.763263 131.8821 -24.111323 130.875 -24.34375 C 129.86789 -24.584746 128.84223 -24.718729 127.84375 -24.71875 z M 191.5 -24.71875 C 189.503 -24.71873 187.75091 -24.390132 186.21875 -23.71875 C 184.69518 -23.047331 183.38304 -22.01625 182.28125 -20.65625 C 181.36022 -19.537234 180.66092 -18.300684 180.1875 -16.90625 C 180.11136 -16.681982 180.06389 -16.447693 180 -16.21875 C 181.74691 -16.328642 183.49773 -16.425856 185.25 -16.53125 C 185.53643 -17.3625 185.92534 -18.102155 186.4375 -18.78125 C 187.60814 -20.330622 189.05969 -21.124984 190.78125 -21.125 C 192.081 -21.124984 193.06998 -20.729392 193.75 -19.9375 C 194.33739 -19.261976 194.66365 -18.295371 194.75 -17.09375 C 196.51231 -17.189 198.27167 -17.286987 200.03125 -17.375 C 199.94898 -19.49938 199.16698 -21.221172 197.6875 -22.5625 C 196.12949 -23.99136 194.06508 -24.718729 191.5 -24.71875 z M 214.0625 -24.71875 C 212.22905 -24.71873 210.49867 -24.370671 208.90625 -23.65625 C 207.32243 -22.941793 205.97136 -21.919319 204.84375 -20.59375 C 204.04627 -19.652567 203.44241 -18.609069 202.96875 -17.5 C 204.77334 -17.585836 206.5781 -17.673398 208.375 -17.75 C 208.60502 -18.123156 208.86155 -18.476241 209.15625 -18.8125 C 210.49904 -20.344656 212.16787 -21.124984 214.15625 -21.125 C 215.1117 -21.124984 216.00878 -20.980147 216.84375 -20.6875 C 217.67868 -20.394823 218.51738 -19.909599 219.34375 -19.28125 L 220.125 -23.28125 C 219.08345 -23.763263 218.06959 -24.111323 217.0625 -24.34375 C 216.05539 -24.584746 215.06098 -24.718729 214.0625 -24.71875 z M 251.875 -24.71875 C 249.27546 -24.71873 247.22827 -24.119916 245.6875 -22.90625 C 244.26373 -21.786421 243.50699 -20.311045 243.40625 -18.5 C 244.99892 -18.488187 246.56155 -18.465133 248.125 -18.4375 C 248.07573 -18.584064 248.0625 -18.728711 248.0625 -18.90625 C 248.0625 -19.594852 248.40512 -20.143889 249.09375 -20.53125 C 249.79096 -20.918581 250.76047 -21.124984 252 -21.125 C 252.9038 -21.124984 253.83439 -20.991 254.78125 -20.75 C 255.72809 -20.517576 256.68356 -20.169516 257.65625 -19.6875 L 258.4375 -23.75 C 257.30126 -24.068467 256.19551 -24.313793 255.09375 -24.46875 C 254.00056 -24.632277 252.91653 -24.718729 251.875 -24.71875 z M 80.71875 -24.375 L 79.96875 -20.625 L 86.375 -20.625 L 84.53125 -11.1875 C 86.076211 -11.127707 87.720662 -11.073664 89.46875 -11.0625 L 91.34375 -20.625 L 97.75 -20.625 L 98.46875 -24.375 L 80.71875 -24.375 z M 101.03125 -24.375 L 98.46875 -11.15625 C 100.09039 -11.200521 101.74192 -11.245203 103.46875 -11.3125 L 103.84375 -13.25 L 111.75 -13.25 L 112.5 -17.03125 L 104.5625 -17.03125 L 105.25 -20.625 L 113.6875 -20.625 L 114.4375 -24.375 L 101.03125 -24.375 z M 138.53125 -24.375 L 136.375 -13.25 C 142.03272 -13.640291 147.84654 -14.046203 153.84375 -14.46875 L 155.78125 -24.375 L 150.8125 -24.375 L 149.40625 -17.03125 L 142.0625 -17.03125 L 143.5 -24.375 L 138.53125 -24.375 z M 160.6875 -24.375 L 158.8125 -14.8125 C 160.37573 -14.921674 161.98464 -15.016307 163.5625 -15.125 L 164.21875 -18.4375 L 165.28125 -15.25 C 166.57292 -15.33842 167.85673 -15.443782 169.15625 -15.53125 L 166.21875 -24.375 L 160.6875 -24.375 z M 173.25 -24.375 L 171.5625 -15.6875 C 173.1471 -15.792842 174.71943 -15.8971 176.3125 -16 L 177.9375 -24.375 L 173.25 -24.375 z M 229.59375 -24.375 L 226.1875 -18.375 C 227.80258 -18.410166 229.40307 -18.414062 231 -18.4375 L 231.59375 -19.53125 L 231.75 -18.4375 C 233.26925 -18.458018 234.8123 -18.490986 236.3125 -18.5 L 235.28125 -24.375 L 229.59375 -24.375 z M 264.21875 -24.375 L 262.96875 -17.875 C 264.62983 -17.77648 266.26816 -17.687075 267.875 -17.5625 L 268.46875 -20.625 L 276.90625 -20.625 L 277.625 -24.375 L 264.21875 -24.375 z M 273.5625 -17.03125 C 274.27242 -16.958291 274.99089 -16.891598 275.6875 -16.8125 L 275.71875 -17.03125 L 273.5625 -17.03125 z "
       style="font-size:26.44286728px;font-style:oblique;font-variant:normal;font-weight:bold;font-stretch:normal;text-align:start;line-height:125%;writing-mode:lr-tb;text-anchor:start;fill:#ffffff;fill-opacity:1;stroke:none;stroke-width:1px;stroke-linecap:butt;stroke-linejoin:miter;stroke-opacity:1;font-family:Bitstream Vera Sans;opacity:0.2" />
    <rect
       id="rect7177"
       x="0"
       y="45"
       width="900"
       height="32"
       style="opacity:1;fill:url(#linearGradient8154);fill-opacity:1.0;stroke:none;stroke-width:1;stroke-linecap:round;stroke-linejoin:round;stroke-miterlimit:4;stroke-dasharray:none;stroke-dashoffset:0;stroke-opacity:1" />
    <path
       id="path9135"
       d="M 0.5,76.615436 C 343.75454,76.615436 899.49999,76.615436 899.49999,76.615436 L 899.49999,77.615436"
       style="fill:#ffffff;fill-rule:evenodd;stroke:#ffffff;stroke-width:1px;stroke-linecap:butt;stroke-linejoin:miter;stroke-opacity:1" />
    <rect
       id="rect9221"
       x="0"
       y="277"
       width="900"
       height="10"
       style="opacity:1;fill:url(#linearGradient9223);fill-opacity:1;stroke:none;stroke-width:1;stroke-linecap:round;stroke-linejoin:round;stroke-miterlimit:4;stroke-dasharray:none;stroke-dashoffset:0;stroke-opacity:1" />
    <image
       style="fill:#00ffff"
       id="image9214"
       x="-108"
       y="-222"
       sodipodi:absref="/home/fernando/Desktop/Glue_3790_1024_768.jpg"
       height="768"
       xlink:href="/home/fernando/Desktop/Glue_3790_1024_768.jpg"
       width="1024"
       clip-path="url(#clipPath9217)" />
    <rect
       id="rect9230"
       x="0"
       y="287"
       width="900"
       height="313"
       style="opacity:1;fill:#f9f9f9;fill-opacity:1;stroke:none;stroke-width:1;stroke-linecap:round;stroke-linejoin:round;stroke-miterlimit:4;stroke-dasharray:none;stroke-dashoffset:0;stroke-opacity:1" />
    <rect
       id="rect9234"
       x="0"
       y="599"
       width="900"
       height="5"
       style="opacity:1;fill:#1a1a1a;fill-opacity:1;stroke:none;stroke-width:1;stroke-linecap:round;stroke-linejoin:round;stroke-miterlimit:4;stroke-dasharray:none;stroke-dashoffset:0;stroke-opacity:1" />
    <rect
       id="rect9742"
       x="0"
       y="287"
       width="900"
       height="52"
       style="opacity:1;fill:url(#linearGradient9750);fill-opacity:1.0;stroke:none;stroke-width:1;stroke-linecap:round;stroke-linejoin:round;stroke-miterlimit:4;stroke-dasharray:none;stroke-dashoffset:0;stroke-opacity:1" />
    <rect
       style="opacity:0.5;fill:url(#linearGradient10803);fill-opacity:1.0;stroke:none;stroke-width:1;stroke-linecap:round;stroke-linejoin:round;stroke-miterlimit:4;stroke-dasharray:none;stroke-dashoffset:0;stroke-opacity:1"
       height="200"
       width="900"
       y="77"
       x="0"
       id="rect9759" />
    <path
       style="fill:none;fill-opacity:1;stroke:none;stroke-width:1;stroke-linecap:round;stroke-linejoin:round;stroke-miterlimit:4;stroke-dashoffset:0;stroke-opacity:1"
       d="M 0 76.5 L 0 45 L 0 45 L 702.28123 45 "
       id="path10778" />
    <path
       style="fill:none;fill-opacity:1;stroke:none;stroke-width:1;stroke-linecap:round;stroke-linejoin:round;stroke-miterlimit:4;stroke-dashoffset:0;stroke-opacity:1"
       d="M 702.28123 45 L 900 45 L 900 77 L 0 77 L 0 76.5 "
       id="rect10760" />
    <path
       style="opacity:1;fill:url(#linearGradient10795);fill-opacity:1;stroke:none;stroke-width:1;stroke-linecap:round;stroke-linejoin:round;stroke-miterlimit:4;stroke-dasharray:none;stroke-dashoffset:0;stroke-opacity:1"
       d="M 699.90625,44.25 L 694.5,58.5 L 713.75,53.875 L 698.5,76 L 900,76 L 900,44.25 L 699.90625,44.25 z "
       id="rect10782" />
    <path
       style="fill:#ffffff;fill-rule:evenodd;stroke:none;stroke-width:1px;stroke-linecap:butt;stroke-linejoin:miter;stroke-opacity:1"
       d="M 699.75,44.5 L 694.25,59 L 713.5,54.375 L 698.25,76.5 L 701.125,76.5 L 720.375,49 L 699.125,54.5 L 702.25,44.25 L 699.75,44.5 z "
       id="path9789"
       sodipodi:nodetypes="ccccccccc" />
    <path
       id="path8164"
       d="M 0.5,44.416665 C 343.75454,44.416665 899.49999,44.416665 899.49999,44.416665 L 899.49999,44.466665"
       style="fill:none;fill-rule:evenodd;stroke:#ffffff;stroke-width:1px;stroke-linecap:butt;stroke-linejoin:miter;stroke-opacity:1" />
  </g>
  <g
     inkscape:groupmode="layer"
     id="layer2"
     inkscape:label="background" />
</svg>
