<?xml version="1.0" encoding="UTF-8" standalone="no"?>
<!-- Created with Inkscape (http://www.inkscape.org/) -->
<svg
   xmlns:dc="http://purl.org/dc/elements/1.1/"
   xmlns:cc="http://creativecommons.org/ns#"
   xmlns:rdf="http://www.w3.org/1999/02/22-rdf-syntax-ns#"
   xmlns:svg="http://www.w3.org/2000/svg"
   xmlns="http://www.w3.org/2000/svg"
   xmlns:sodipodi="http://sodipodi.sourceforge.net/DTD/sodipodi-0.dtd"
   xmlns:inkscape="http://www.inkscape.org/namespaces/inkscape"
   width="378"
   height="138"
   id="svg2488"
   sodipodi:version="0.32"
   inkscape:version="0.46"
   version="1.0"
   sodipodi:docname="logo.svg"
   inkscape:output_extension="org.inkscape.output.svg.inkscape">
  <defs
     id="defs2490">
    <inkscape:perspective
       sodipodi:type="inkscape:persp3d"
       inkscape:vp_x="0 : 32 : 1"
       inkscape:vp_y="0 : 1000 : 0"
       inkscape:vp_z="64 : 32 : 1"
       inkscape:persp3d-origin="32 : 21.333333 : 1"
       id="perspective2496" />
    <inkscape:perspective
       id="perspective3338"
       inkscape:persp3d-origin="372.04724 : 350.78739 : 1"
       inkscape:vp_z="744.09448 : 526.18109 : 1"
       inkscape:vp_y="0 : 1000 : 0"
       inkscape:vp_x="0 : 526.18109 : 1"
       sodipodi:type="inkscape:persp3d" />
  </defs>
  <sodipodi:namedview
     id="base"
     pagecolor="#ffffff"
     bordercolor="#666666"
     borderopacity="1.0"
     inkscape:pageopacity="0.0"
     inkscape:pageshadow="2"
     inkscape:zoom="1"
     inkscape:cx="191.81776"
     inkscape:cy="62.875275"
     inkscape:current-layer="layer1"
     showgrid="true"
     inkscape:document-units="px"
     inkscape:grid-bbox="true" />
  <metadata
     id="metadata2493">
    <rdf:RDF>
      <cc:Work
         rdf:about="">
        <dc:format>image/svg+xml</dc:format>
        <dc:type
           rdf:resource="http://purl.org/dc/dcmitype/StillImage" />
      </cc:Work>
    </rdf:RDF>
  </metadata>
  <g
     id="layer1"
     inkscape:label="Layer 1"
     inkscape:groupmode="layer"
     transform="translate(-7.1551802,-3.9653243)">
    <g
       id="g3356"
       transform="translate(3.0783234,4.9900931)">
      <path
         transform="matrix(1.3410092,0,0,1.341606,-10.531627,-10.499046)"
         d="M 29.875,10.78125 L 23.125,23.375 C 22.624331,24.319163 21.501962,24.746732 20.5,24.375 L 13.125,21.65625 L 20.65625,33.8125 C 21.211902,34.710954 21.025785,35.880837 20.21875,36.5625 L 14.1875,41.59375 L 28.4375,41.15625 C 29.489719,41.127264 30.405596,41.870585 30.59375,42.90625 L 31.9375,50.6875 L 38.71875,38.09375 C 39.21725,37.165061 40.31959,36.740062 41.3125,37.09375 L 48.6875,39.78125 L 41.15625,27.65625 C 40.600598,26.757796 40.786715,25.587913 41.59375,24.90625 L 47.65625,19.84375 L 33.375,20.28125 C 32.322781,20.310236 31.406904,19.566915 31.21875,18.53125 L 29.875,10.78125 z"
         id="path2502"
         style="opacity:1;fill:#ffffff;fill-opacity:1;stroke:#828282;stroke-width:1.49108231;stroke-linecap:square;stroke-linejoin:miter;stroke-miterlimit:4;stroke-dasharray:none;stroke-dashoffset:0;stroke-opacity:1"
         inkscape:original="M 30.90625 4.34375 L 21.25 22.375 L 8.0625 17.53125 L 18.84375 34.9375 L 8.0625 43.90625 L 28.5 43.28125 L 30.90625 57.09375 L 40.59375 39.09375 L 53.75 43.90625 L 42.96875 26.53125 L 53.75 17.53125 L 33.3125 18.15625 L 30.90625 4.34375 z "
         inkscape:radius="-2.1316667"
         sodipodi:type="inkscape:offset" />
      <path
         transform="matrix(1.3410092,0,0,1.341606,-10.531627,-10.499046)"
         d="M 28.71875,17.96875 L 25.21875,24.5 C 24.157459,26.482293 21.795409,27.376402 19.6875,26.59375 L 18.75,26.25 L 22.65625,32.5625 C 23.849715,34.470647 23.449201,36.967181 21.71875,38.40625 L 21,39 L 28.375,38.78125 C 30.608351,38.715654 32.551325,40.299311 32.9375,42.5 L 33.125,43.5 L 36.625,36.96875 C 37.684119,35.001977 40.026107,34.110425 42.125,34.875 L 43.0625,35.21875 L 39.15625,28.90625 C 37.981246,27.004918 38.380548,24.529242 40.09375,23.09375 L 40.90625,22.4375 L 33.4375,22.65625 C 31.204149,22.721846 29.261175,21.138189 28.875,18.9375 L 28.71875,17.96875 z"
         id="path3348"
         style="opacity:1;fill:#cccccc;fill-opacity:1;stroke:#7f7f7f;stroke-width:1.49108231;stroke-linecap:square;stroke-linejoin:miter;stroke-miterlimit:4;stroke-dasharray:none;stroke-dashoffset:0;stroke-opacity:1"
         inkscape:original="M 30.90625 4.34375 L 21.25 22.375 L 8.0625 17.53125 L 18.84375 34.9375 L 8.0625 43.90625 L 28.5 43.28125 L 30.90625 57.09375 L 40.59375 39.09375 L 53.75 43.90625 L 42.96875 26.53125 L 53.75 17.53125 L 33.3125 18.15625 L 30.90625 4.34375 z "
         inkscape:radius="-4.4976888"
         sodipodi:type="inkscape:offset" />
      <path
         transform="matrix(0.453862,0,0,0.454064,14.228434,19.765196)"
         d="M 36.5625,15.96875 C 31.974632,15.96875 28.21875,19.724632 28.21875,24.3125 C 28.21875,28.900368 31.974632,32.65625 36.5625,32.65625 C 41.150368,32.65625 44.90625,28.900368 44.90625,24.3125 C 44.90625,19.724632 41.150368,15.96875 36.5625,15.96875 z"
         id="path3354"
         style="opacity:1;fill:#ffffff;fill-opacity:1;stroke:#7f7f7f;stroke-width:4.40564537;stroke-linecap:square;stroke-linejoin:miter;stroke-miterlimit:4;stroke-dasharray:none;stroke-dashoffset:0;stroke-opacity:1"
         inkscape:original="M 36.5625 18 C 33.078 18 30.25 20.828 30.25 24.3125 C 30.25 27.797 33.078 30.625 36.5625 30.625 C 40.047 30.625 42.875 27.797 42.875 24.3125 C 42.875 20.828 40.047 18 36.5625 18 z "
         inkscape:radius="2.0392611"
         sodipodi:type="inkscape:offset" />
    </g>
    <g
       id="g3373"
       transform="translate(167.10169,-23.852696)">
      <path
         style="font-size:40px;font-style:normal;font-variant:normal;font-weight:normal;font-stretch:normal;text-align:start;line-height:125%;writing-mode:lr-tb;text-anchor:start;fill:#000000;fill-opacity:1;stroke:none;stroke-width:1px;stroke-linecap:butt;stroke-linejoin:miter;stroke-opacity:1;font-family:Lacuna Regular;-inkscape-font-specification:Lacuna Regular"
         d="M -78.938202,64.262489 L -97.218202,64.262489 L -97.258202,33.062489 L -79.618202,33.062489 L -79.618202,35.942489 L -93.778202,35.942489 L -93.778202,46.782489 L -81.178202,46.782489 L -81.178202,49.662489 L -93.778202,49.662489 L -93.778202,61.382489 L -78.938202,61.382489 L -78.938202,64.262489 M -67.035077,64.702489 C -70.768416,64.702489 -72.635081,62.729158 -72.635077,58.782489 L -72.635077,31.542489 L -69.235077,31.542489 L -69.235077,57.942489 C -69.235084,59.329161 -69.128417,60.24916 -68.915077,60.702489 C -68.621751,61.262492 -67.995085,61.582492 -67.035077,61.662489 L -67.035077,64.702489 M -46.868827,64.262489 L -50.388827,64.262489 C -50.655508,63.915823 -50.815508,63.395824 -50.868827,62.702489 C -52.14884,63.98249 -53.828838,64.622489 -55.908827,64.622489 C -58.0155,64.622489 -59.695499,64.115823 -60.948827,63.102489 C -62.335496,61.982492 -63.028829,60.342493 -63.028827,58.182489 C -63.028829,56.129164 -62.22883,54.489166 -60.628827,53.262489 C -59.188833,52.142501 -57.442168,51.582502 -55.388827,51.582489 C -53.468838,51.582502 -51.962173,51.822502 -50.868827,52.302489 L -50.868827,49.662489 C -50.868841,46.91584 -52.175506,45.542508 -54.788827,45.542489 C -56.575502,45.542508 -58.108834,45.969174 -59.388827,46.822489 L -60.508827,44.182489 C -58.642166,43.22251 -56.615502,42.742511 -54.428827,42.742489 C -49.788842,42.742511 -47.468844,45.102508 -47.468827,49.822489 L -47.468827,59.582489 C -47.468844,61.209159 -47.428844,62.289158 -47.348827,62.822489 C -47.322178,62.929157 -47.162178,63.409157 -46.868827,64.262489 M -50.868827,59.742489 L -50.868827,54.942489 C -51.855507,54.489166 -53.175505,54.262499 -54.828827,54.262489 C -57.895501,54.262499 -59.428832,55.649165 -59.428827,58.422489 C -59.428832,60.742493 -58.068834,61.902492 -55.348827,61.902489 C -53.722171,61.902492 -52.22884,61.182492 -50.868827,59.742489 M -27.856952,58.822489 C -27.856968,60.742493 -28.616967,62.209158 -30.136952,63.222489 C -31.470297,64.129156 -33.150296,64.582489 -35.176952,64.582489 C -36.670292,64.582489 -38.030291,64.329156 -39.256952,63.822489 C -39.790289,63.609157 -40.723622,63.10249 -42.056952,62.302489 L -40.456952,59.782489 C -38.723624,61.035826 -37.003625,61.662492 -35.296952,61.662489 C -32.68363,61.662492 -31.376964,60.782493 -31.376952,59.022489 C -31.376964,58.009162 -31.816964,57.142496 -32.696952,56.422489 C -33.203629,55.995831 -34.270295,55.369165 -35.896952,54.542489 C -37.683625,53.635833 -38.923623,52.889167 -39.616952,52.302489 C -40.976955,51.155836 -41.656954,49.835837 -41.656952,48.342489 C -41.656954,46.502507 -40.923621,45.075842 -39.456952,44.062489 C -38.176957,43.155844 -36.576959,42.702511 -34.656952,42.702489 C -32.44363,42.702511 -30.323632,43.289177 -28.296952,44.462489 L -29.616952,46.942489 C -31.483631,46.009174 -33.056963,45.542508 -34.336952,45.542489 C -35.350294,45.542508 -36.190293,45.742508 -36.856952,46.142489 C -37.656958,46.622507 -38.056958,47.302506 -38.056952,48.182489 C -38.056958,48.982505 -37.616958,49.729171 -36.736952,50.422489 C -36.336959,50.715836 -35.29696,51.329169 -33.616952,52.262489 C -31.723631,53.3025 -30.456965,54.115833 -29.816952,54.702489 C -28.5103,55.875831 -27.856968,57.249163 -27.856952,58.822489 M -14.435077,64.582489 C -16.541753,64.582489 -18.248418,64.06249 -19.555077,63.022489 C -21.075082,61.849158 -21.835081,60.16916 -21.835077,57.982489 L -21.835077,45.702489 L -24.715077,45.702489 L -24.715077,43.062489 L -21.835077,43.102489 L -21.835077,38.182489 L -18.435077,38.182489 L -18.435077,43.062489 L -14.435077,43.062489 L -14.435077,45.702489 L -18.435077,45.702489 L -18.435077,58.022489 C -18.435085,59.089161 -18.101752,59.96916 -17.435077,60.662489 C -16.741753,61.355826 -15.741754,61.702492 -14.435077,61.702489 L -14.435077,64.582489 M -4.4507019,37.302489 C -4.4507097,37.889182 -4.6640428,38.395849 -5.0907019,38.822489 C -5.5173753,39.249181 -6.0240415,39.462514 -6.6107019,39.462489 C -7.1973736,39.462514 -7.7040398,39.249181 -8.1307019,38.822489 C -8.5307056,38.395849 -8.7307054,37.889182 -8.7307019,37.302489 C -8.7307054,36.71585 -8.5307056,36.209184 -8.1307019,35.782489 C -7.7040398,35.355852 -7.1973736,35.142518 -6.6107019,35.142489 C -5.9973748,35.142518 -5.4907087,35.355852 -5.0907019,35.782489 C -4.6640428,36.182517 -4.4507097,36.689184 -4.4507019,37.302489 M -2.3307019,64.262489 L -10.650702,64.262489 L -10.650702,61.702489 L -8.2907019,61.702489 L -8.2907019,43.102489 L -4.8907019,43.102489 L -4.8907019,61.702489 L -2.3307019,61.702489 L -2.3307019,64.262489 M 15.993673,61.742489 C 14.313658,63.66249 12.19366,64.622489 9.6336731,64.622489 C 7.1803318,64.622489 5.2203338,63.78249 3.7536731,62.102489 C 2.0736703,60.235827 1.2336711,57.449163 1.2336731,53.742489 C 1.2336711,50.00917 2.0336703,47.19584 3.6336731,45.302489 C 5.0736673,43.595843 7.0736653,42.742511 9.6336731,42.742489 C 11.926994,42.742511 13.820325,43.569177 15.313673,45.222489 L 13.353673,47.182489 C 12.286993,46.089174 11.046995,45.542508 9.6336731,45.542489 C 6.4336659,45.542508 4.8336675,48.275839 4.8336731,53.742489 C 4.8336675,59.155828 6.4336659,61.862492 9.6336731,61.862489 C 11.446994,61.862492 12.913659,61.169159 14.033673,59.782489 L 15.993673,61.742489"
         id="text2383" />
      <path
         style="font-size:40px;font-style:normal;font-variant:normal;font-weight:normal;font-stretch:normal;text-align:start;line-height:125%;writing-mode:lr-tb;text-anchor:start;fill:#000000;fill-opacity:1;stroke:none;stroke-width:1px;stroke-linecap:butt;stroke-linejoin:miter;stroke-opacity:1;font-family:Lacuna Regular;-inkscape-font-specification:Lacuna Regular"
         d="M -94.874399,70.933551 C -94.874403,71.226898 -94.981069,71.480231 -95.194399,71.693551 C -95.407736,71.906897 -95.661069,72.013564 -95.954399,72.013551 C -96.247735,72.013564 -96.501068,71.906897 -96.714399,71.693551 C -96.914401,71.480231 -97.014401,71.226898 -97.014399,70.933551 C -97.014401,70.640232 -96.914401,70.386899 -96.714399,70.173551 C -96.501068,69.960232 -96.247735,69.853566 -95.954399,69.853551 C -95.647735,69.853566 -95.394402,69.960232 -95.194399,70.173551 C -94.981069,70.373565 -94.874403,70.626898 -94.874399,70.933551 M -93.814399,84.413551 L -97.974399,84.413551 L -97.974399,83.133551 L -96.794399,83.133551 L -96.794399,73.833551 L -95.094399,73.833551 L -95.094399,83.133551 L -93.814399,83.133551 L -93.814399,84.413551 M -82.952211,84.413551 L -84.652211,84.413551 L -84.652211,77.613551 C -84.65222,76.773559 -84.77222,76.166893 -85.012211,75.793551 C -85.305552,75.340227 -85.832219,75.113561 -86.592211,75.113551 C -87.60555,75.113561 -88.552216,75.586893 -89.432211,76.533551 L -89.432211,84.413551 L -91.132211,84.413551 L -91.132211,73.833551 L -89.432211,73.833551 L -89.432211,74.873551 C -88.552216,74.060228 -87.558883,73.653562 -86.452211,73.653551 C -85.372219,73.653562 -84.565553,73.886895 -84.032211,74.353551 C -83.312221,74.966894 -82.952221,76.05356 -82.952211,77.613551 L -82.952211,84.413551 M -75.140024,84.573551 C -76.193362,84.573551 -77.046694,84.313551 -77.700024,83.793551 C -78.460026,83.206886 -78.840026,82.366887 -78.840024,81.273551 L -78.840024,75.133551 L -80.280024,75.133551 L -80.280024,73.813551 L -78.840024,73.833551 L -78.840024,71.373551 L -77.140024,71.373551 L -77.140024,73.813551 L -75.140024,73.813551 L -75.140024,75.133551 L -77.140024,75.133551 L -77.140024,81.293551 C -77.140028,81.826887 -76.973361,82.266887 -76.640024,82.613551 C -76.293362,82.960219 -75.793362,83.133553 -75.140024,83.133551 L -75.140024,84.573551 M -64.207836,84.413551 L -65.907836,84.413551 L -65.907836,83.473551 C -66.65451,84.206885 -67.581176,84.573551 -68.687836,84.573551 C -69.754507,84.573551 -70.554506,84.326885 -71.087836,83.833551 C -71.794505,83.180219 -72.147838,82.073554 -72.147836,80.513551 L -72.147836,73.813551 L -70.447836,73.813551 L -70.447836,80.613551 C -70.44784,81.533554 -70.32784,82.166887 -70.087836,82.513551 C -69.807841,82.913553 -69.281174,83.113553 -68.507836,83.113551 C -67.481176,83.113553 -66.61451,82.68022 -65.907836,81.813551 L -65.907836,73.813551 L -64.207836,73.813551 L -64.207836,84.413551 M -58.390024,70.933551 C -58.390028,71.226898 -58.496694,71.480231 -58.710024,71.693551 C -58.923361,71.906897 -59.176694,72.013564 -59.470024,72.013551 C -59.76336,72.013564 -60.016693,71.906897 -60.230024,71.693551 C -60.430026,71.480231 -60.530026,71.226898 -60.530024,70.933551 C -60.530026,70.640232 -60.430026,70.386899 -60.230024,70.173551 C -60.016693,69.960232 -59.76336,69.853566 -59.470024,69.853551 C -59.16336,69.853566 -58.910027,69.960232 -58.710024,70.173551 C -58.496694,70.373565 -58.390028,70.626898 -58.390024,70.933551 M -57.330024,84.413551 L -61.490024,84.413551 L -61.490024,83.133551 L -60.310024,83.133551 L -60.310024,73.833551 L -58.610024,73.833551 L -58.610024,83.133551 L -57.330024,83.133551 L -57.330024,84.413551 M -50.647836,84.573551 C -51.701174,84.573551 -52.554507,84.313551 -53.207836,83.793551 C -53.967839,83.206886 -54.347839,82.366887 -54.347836,81.273551 L -54.347836,75.133551 L -55.787836,75.133551 L -55.787836,73.813551 L -54.347836,73.833551 L -54.347836,71.373551 L -52.647836,71.373551 L -52.647836,73.813551 L -50.647836,73.813551 L -50.647836,75.133551 L -52.647836,75.133551 L -52.647836,81.293551 C -52.64784,81.826887 -52.481174,82.266887 -52.147836,82.613551 C -51.801174,82.960219 -51.301175,83.133553 -50.647836,83.133551 L -50.647836,84.573551 M -45.655649,70.933551 C -45.655653,71.226898 -45.762319,71.480231 -45.975649,71.693551 C -46.188986,71.906897 -46.442319,72.013564 -46.735649,72.013551 C -47.028985,72.013564 -47.282318,71.906897 -47.495649,71.693551 C -47.695651,71.480231 -47.795651,71.226898 -47.795649,70.933551 C -47.795651,70.640232 -47.695651,70.386899 -47.495649,70.173551 C -47.282318,69.960232 -47.028985,69.853566 -46.735649,69.853551 C -46.428985,69.853566 -46.175652,69.960232 -45.975649,70.173551 C -45.762319,70.373565 -45.655653,70.626898 -45.655649,70.933551 M -44.595649,84.413551 L -48.755649,84.413551 L -48.755649,83.133551 L -47.575649,83.133551 L -47.575649,73.833551 L -45.875649,73.833551 L -45.875649,83.133551 L -44.595649,83.133551 L -44.595649,84.413551 M -34.293461,73.813551 L -37.973461,84.413551 L -39.733461,84.413551 L -43.413461,73.813551 L -41.593461,73.813551 L -39.213461,81.073551 L -38.893461,82.373551 L -38.813461,82.373551 L -38.453461,81.073551 L -36.073461,73.813551 L -34.293461,73.813551 M -24.671586,79.473551 L -31.071586,79.473551 C -31.058256,80.686888 -30.778256,81.620221 -30.231586,82.273551 C -29.724924,82.86022 -29.058258,83.153553 -28.231586,83.153551 C -27.25826,83.153553 -26.451594,82.773553 -25.811586,82.013551 L -24.851586,82.993551 C -25.851594,84.060218 -26.984927,84.593551 -28.251586,84.593551 C -29.571591,84.593551 -30.644923,84.180218 -31.471586,83.353551 C -32.418254,82.406887 -32.891587,81.020221 -32.891586,79.193551 C -32.891587,77.340225 -32.451588,75.920226 -31.571586,74.933551 C -30.798256,74.066895 -29.798257,73.633562 -28.571586,73.633551 C -27.438259,73.633562 -26.51826,74.033562 -25.811586,74.833551 C -25.051595,75.726893 -24.671596,76.986892 -24.671586,78.613551 L -24.671586,79.473551 M -26.411586,78.273551 C -26.47826,77.166892 -26.67826,76.353559 -27.011586,75.833551 C -27.344926,75.31356 -27.864926,75.053561 -28.571586,75.053551 C -30.05159,75.053561 -30.878256,76.126893 -31.051586,78.273551 L -26.411586,78.273551 M -10.785024,83.153551 C -11.625031,84.113552 -12.68503,84.593551 -13.965024,84.593551 C -15.191694,84.593551 -16.171693,84.173552 -16.905024,83.333551 C -17.745025,82.40022 -18.165025,81.006888 -18.165024,79.153551 C -18.165025,77.286892 -17.765025,75.880227 -16.965024,74.933551 C -16.245027,74.080228 -15.245028,73.653562 -13.965024,73.653551 C -12.818363,73.653562 -11.871698,74.066895 -11.125024,74.893551 L -12.105024,75.873551 C -12.638364,75.326894 -13.258363,75.053561 -13.965024,75.053551 C -15.565027,75.053561 -16.365027,76.420226 -16.365024,79.153551 C -16.365027,81.860221 -15.565027,83.213553 -13.965024,83.213551 C -13.058363,83.213553 -12.325031,82.866886 -11.765024,82.173551 L -10.785024,83.153551 M -2.2025238,81.693551 C -2.2025317,82.653553 -2.5825313,83.386886 -3.3425238,83.893551 C -4.0091966,84.346885 -4.8491957,84.573551 -5.8625238,84.573551 C -6.609194,84.573551 -7.2891933,84.446885 -7.9025238,84.193551 C -8.1691924,84.086885 -8.6358586,83.833552 -9.3025238,83.433551 L -8.5025238,82.173551 C -7.6358596,82.80022 -6.7758605,83.113553 -5.9225238,83.113551 C -4.6158626,83.113553 -3.9625299,82.673553 -3.9625238,81.793551 C -3.9625299,81.286888 -4.1825297,80.853555 -4.6225238,80.493551 C -4.8758624,80.280222 -5.4091952,79.966889 -6.2225238,79.553551 C -7.1158601,79.100223 -7.7358595,78.72689 -8.0825238,78.433551 C -8.7625251,77.860225 -9.1025248,77.200225 -9.1025238,76.453551 C -9.1025248,75.53356 -8.7358585,74.820228 -8.0025238,74.313551 C -7.3625265,73.860229 -6.5625273,73.633562 -5.6025238,73.633551 C -4.4958627,73.633562 -3.4358638,73.926895 -2.4225238,74.513551 L -3.0825238,75.753551 C -4.0158632,75.286894 -4.8025291,75.053561 -5.4425238,75.053551 C -5.9491946,75.053561 -6.3691942,75.153561 -6.7025238,75.353551 C -7.1025268,75.59356 -7.3025266,75.93356 -7.3025238,76.373551 C -7.3025266,76.773559 -7.0825268,77.146892 -6.6425238,77.493551 C -6.4425275,77.640225 -5.922528,77.946891 -5.0825238,78.413551 C -4.1358631,78.933557 -3.5025304,79.340223 -3.1825238,79.633551 C -2.529198,80.220222 -2.2025317,80.906888 -2.2025238,81.693551 M 6.5084137,81.693551 C 6.5084058,82.653553 6.1284062,83.386886 5.3684137,83.893551 C 4.7017409,84.346885 3.8617418,84.573551 2.8484137,84.573551 C 2.1017435,84.573551 1.4217442,84.446885 0.8084137,84.193551 C 0.5417451,84.086885 0.075078896,83.833552 -0.5915863,83.433551 L 0.2084137,82.173551 C 1.0750779,82.80022 1.935077,83.113553 2.7884137,83.113551 C 4.0950749,83.113553 4.7484076,82.673553 4.7484137,81.793551 C 4.7484076,81.286888 4.5284078,80.853555 4.0884137,80.493551 C 3.8350751,80.280222 3.3017423,79.966889 2.4884137,79.553551 C 1.5950774,79.100223 0.975078,78.72689 0.6284137,78.433551 C -0.051587644,77.860225 -0.3915873,77.200225 -0.3915863,76.453551 C -0.3915873,75.53356 -0.024921004,74.820228 0.7084137,74.313551 C 1.348411,73.860229 2.1484102,73.633562 3.1084137,73.633551 C 4.2150748,73.633562 5.2750737,73.926895 6.2884137,74.513551 L 5.6284137,75.753551 C 4.6950743,75.286894 3.9084084,75.053561 3.2684137,75.053551 C 2.7617429,75.053561 2.3417433,75.153561 2.0084137,75.353551 C 1.6084107,75.59356 1.4084109,75.93356 1.4084137,76.373551 C 1.4084109,76.773559 1.6284107,77.146892 2.0684137,77.493551 C 2.26841,77.640225 2.7884095,77.946891 3.6284137,78.413551 C 4.5750744,78.933557 5.2084071,79.340223 5.5284137,79.633551 C 6.1817395,80.220222 6.5084058,80.906888 6.5084137,81.693551 M 17.578101,75.153551 L 15.578101,75.153551 L 15.578101,83.133551 L 17.058101,83.133551 L 17.058101,84.413551 L 12.838101,84.413551 L 12.838101,83.133551 L 13.878101,83.133551 L 13.878101,75.153551 L 12.438101,75.153551 L 12.438101,73.813551 L 13.878101,73.813551 L 13.878101,71.113551 C 13.878099,70.046899 14.264765,69.2469 15.038101,68.713551 C 15.678097,68.286901 16.524763,68.073568 17.578101,68.073551 L 17.578101,69.433551 C 16.244763,69.433566 15.578097,69.980232 15.578101,71.073551 L 15.578101,73.813551 L 17.578101,73.813551 L 17.578101,75.153551 M 26.414039,74.213551 L 25.694039,75.453551 C 25.227365,75.226894 24.774032,75.113561 24.334039,75.113551 C 23.5207,75.113561 22.834034,75.526894 22.274039,76.353551 L 22.274039,83.133551 L 23.774039,83.133551 L 23.774039,84.413551 L 19.554039,84.413551 L 19.554039,83.133551 L 20.574039,83.133551 L 20.574039,73.813551 L 22.274039,73.813551 L 22.274039,74.673551 C 22.900701,73.993562 23.6407,73.653562 24.494039,73.653551 C 25.187365,73.653562 25.827365,73.840229 26.414039,74.213551 M 35.713414,84.413551 L 33.953414,84.413551 C 33.820073,84.240218 33.740073,83.980218 33.713414,83.633551 C 33.073407,84.273551 32.233408,84.593551 31.193414,84.593551 C 30.140077,84.593551 29.300078,84.340218 28.673414,83.833551 C 27.980079,83.273552 27.633413,82.453553 27.633414,81.373551 C 27.633413,80.346889 28.033412,79.52689 28.833414,78.913551 C 29.553411,78.353557 30.426743,78.073558 31.453414,78.073551 C 32.413408,78.073558 33.166741,78.193558 33.713414,78.433551 L 33.713414,77.113551 C 33.713407,75.740227 33.060074,75.053561 31.753414,75.053551 C 30.860076,75.053561 30.09341,75.266894 29.453414,75.693551 L 28.893414,74.373551 C 29.826744,73.893562 30.840076,73.653562 31.933414,73.653551 C 34.253406,73.653562 35.413405,74.833561 35.413414,77.193551 L 35.413414,82.073551 C 35.413405,82.886886 35.433405,83.426886 35.473414,83.693551 C 35.486738,83.746885 35.566738,83.986885 35.713414,84.413551 M 33.713414,82.153551 L 33.713414,79.753551 C 33.220074,79.52689 32.560075,79.413556 31.733414,79.413551 C 30.200077,79.413556 29.433411,80.106889 29.433414,81.493551 C 29.433411,82.653553 30.11341,83.233553 31.473414,83.233551 C 32.286741,83.233553 33.033407,82.873553 33.713414,82.153551 M 53.119351,84.413551 L 51.419351,84.413551 L 51.419351,77.753551 C 51.419337,75.99356 50.759338,75.113561 49.439351,75.113551 C 48.412673,75.113561 47.606008,75.640227 47.019351,76.693551 L 47.019351,84.413551 L 45.319351,84.413551 L 45.319351,77.753551 C 45.319343,75.99356 44.666011,75.113561 43.359351,75.113551 C 42.412679,75.113561 41.599347,75.586893 40.919351,76.533551 L 40.919351,84.413551 L 39.219351,84.413551 L 39.219351,73.813551 L 40.919351,73.813551 L 40.919351,74.873551 C 41.639347,74.060228 42.566013,73.653562 43.699351,73.653551 C 44.952677,73.653562 45.899343,74.140228 46.539351,75.113551 C 47.352674,74.140228 48.39934,73.653562 49.679351,73.653551 C 50.652671,73.653562 51.446004,73.940228 52.059351,74.513551 C 52.766002,75.180227 53.119335,76.15356 53.119351,77.433551 L 53.119351,84.413551 M 64.234664,79.473551 L 57.834664,79.473551 C 57.847994,80.686888 58.127994,81.620221 58.674664,82.273551 C 59.181326,82.86022 59.847992,83.153553 60.674664,83.153551 C 61.64799,83.153553 62.454656,82.773553 63.094664,82.013551 L 64.054664,82.993551 C 63.054656,84.060218 61.921323,84.593551 60.654664,84.593551 C 59.334659,84.593551 58.261327,84.180218 57.434664,83.353551 C 56.487996,82.406887 56.014663,81.020221 56.014664,79.193551 C 56.014663,77.340225 56.454662,75.920226 57.334664,74.933551 C 58.107994,74.066895 59.107993,73.633562 60.334664,73.633551 C 61.467991,73.633562 62.38799,74.033562 63.094664,74.833551 C 63.854655,75.726893 64.234654,76.986892 64.234664,78.613551 L 64.234664,79.473551 M 62.494664,78.273551 C 62.42799,77.166892 62.22799,76.353559 61.894664,75.833551 C 61.561324,75.31356 61.041324,75.053561 60.334664,75.053551 C 58.85466,75.053561 58.027994,76.126893 57.854664,78.273551 L 62.494664,78.273551 M 80.109976,73.813551 L 76.949976,84.413551 L 75.309976,84.413551 L 73.049976,76.493551 L 72.969976,76.493551 L 72.609976,77.893551 L 70.709976,84.413551 L 69.089976,84.413551 L 65.849976,73.813551 L 67.589976,73.813551 L 69.869976,82.373551 L 69.929976,82.373551 L 70.229976,81.053551 L 72.209976,73.813551 L 73.809976,73.813551 L 76.089976,82.373551 L 76.149976,82.373551 L 76.449976,81.053551 L 78.429976,73.813551 L 80.109976,73.813551 M 90.337789,79.133551 C 90.337779,81.013555 89.904446,82.42022 89.037789,83.353551 C 88.291114,84.166885 87.291115,84.573551 86.037789,84.573551 C 84.731118,84.573551 83.711119,84.153552 82.977789,83.313551 C 82.137787,82.38022 81.717788,80.986888 81.717789,79.133551 C 81.717788,77.266892 82.137787,75.860227 82.977789,74.913551 C 83.724452,74.073562 84.744451,73.653562 86.037789,73.653551 C 87.291115,73.653562 88.291114,74.066895 89.037789,74.893551 C 89.904446,75.840227 90.337779,77.253558 90.337789,79.133551 M 88.577789,79.133551 C 88.577781,76.386893 87.731115,75.013561 86.037789,75.013551 C 84.331118,75.013561 83.477786,76.386893 83.477789,79.133551 C 83.477786,81.853554 84.331118,83.213553 86.037789,83.213551 C 87.731115,83.213553 88.577781,81.853554 88.577789,79.133551 M 99.382789,74.213551 L 98.662789,75.453551 C 98.196115,75.226894 97.742782,75.113561 97.302789,75.113551 C 96.48945,75.113561 95.802784,75.526894 95.242789,76.353551 L 95.242789,83.133551 L 96.742789,83.133551 L 96.742789,84.413551 L 92.522789,84.413551 L 92.522789,83.133551 L 93.542789,83.133551 L 93.542789,73.813551 L 95.242789,73.813551 L 95.242789,74.673551 C 95.869451,73.993562 96.60945,73.653562 97.462789,73.653551 C 98.156115,73.653562 98.796115,73.840229 99.382789,74.213551 M 109.96216,84.413551 L 108.12216,84.413551 L 104.76216,78.593551 L 103.30216,80.033551 L 103.30216,84.413551 L 101.60216,84.413551 L 101.60216,68.053551 L 103.30216,68.053551 L 103.30216,77.973551 L 107.42216,73.833551 L 109.50216,73.833551 L 105.88216,77.453551 L 109.96216,84.413551 M 118.98779,68.813551 L 118.70779,80.173551 L 117.34779,80.173551 L 117.06779,68.813551 L 118.98779,68.813551 M 119.34779,83.393551 C 119.34778,83.753552 119.22112,84.060218 118.96779,84.313551 C 118.71445,84.566885 118.41445,84.693551 118.06779,84.693551 C 117.70779,84.693551 117.40112,84.566885 117.14779,84.313551 C 116.89445,84.060218 116.76779,83.753552 116.76779,83.393551 C 116.76779,83.046886 116.89445,82.746886 117.14779,82.493551 C 117.40112,82.24022 117.70779,82.113554 118.06779,82.113551 C 118.41445,82.113554 118.71445,82.24022 118.96779,82.493551 C 119.22112,82.746886 119.34778,83.046886 119.34779,83.393551 M 125.55529,70.933551 C 125.55528,71.226898 125.44862,71.480231 125.23529,71.693551 C 125.02195,71.906897 124.76862,72.013564 124.47529,72.013551 C 124.18195,72.013564 123.92862,71.906897 123.71529,71.693551 C 123.51529,71.480231 123.41529,71.226898 123.41529,70.933551 C 123.41529,70.640232 123.51529,70.386899 123.71529,70.173551 C 123.92862,69.960232 124.18195,69.853566 124.47529,69.853551 C 124.78195,69.853566 125.03529,69.960232 125.23529,70.173551 C 125.44862,70.373565 125.55528,70.626898 125.55529,70.933551 M 126.61529,84.413551 L 122.45529,84.413551 L 122.45529,83.133551 L 123.63529,83.133551 L 123.63529,73.833551 L 125.33529,73.833551 L 125.33529,83.133551 L 126.61529,83.133551 L 126.61529,84.413551 M 143.19748,84.413551 L 141.49748,84.413551 L 141.49748,77.753551 C 141.49746,75.99356 140.83746,75.113561 139.51748,75.113551 C 138.4908,75.113561 137.68413,75.640227 137.09748,76.693551 L 137.09748,84.413551 L 135.39748,84.413551 L 135.39748,77.753551 C 135.39747,75.99356 134.74414,75.113561 133.43748,75.113551 C 132.4908,75.113561 131.67747,75.586893 130.99748,76.533551 L 130.99748,84.413551 L 129.29748,84.413551 L 129.29748,73.813551 L 130.99748,73.813551 L 130.99748,74.873551 C 131.71747,74.060228 132.64414,73.653562 133.77748,73.653551 C 135.0308,73.653562 135.97747,74.140228 136.61748,75.113551 C 137.4308,74.140228 138.47747,73.653562 139.75748,73.653551 C 140.7308,73.653562 141.52413,73.940228 142.13748,74.513551 C 142.84413,75.180227 143.19746,76.15356 143.19748,77.433551 L 143.19748,84.413551 M 155.29279,78.993551 C 155.29278,80.940221 154.87278,82.393553 154.03279,83.353551 C 153.33945,84.140218 152.43945,84.533551 151.33279,84.533551 C 150.27945,84.533551 149.39945,84.260218 148.69279,83.713551 L 148.69279,90.093551 L 146.99279,90.093551 L 146.99279,73.813551 L 148.69279,73.813551 L 148.69279,74.733551 C 149.39945,74.013562 150.29278,73.653562 151.37279,73.653551 C 152.37278,73.653562 153.22611,74.026895 153.93279,74.773551 C 154.83945,75.73356 155.29278,77.140225 155.29279,78.993551 M 153.47279,79.073551 C 153.47278,76.420226 152.71278,75.093561 151.19279,75.093551 C 150.07278,75.093561 149.23945,75.526894 148.69279,76.393551 L 148.69279,82.093551 C 149.17278,82.786886 149.93278,83.133553 150.97279,83.133551 C 151.78612,83.133553 152.38611,82.86022 152.77279,82.313551 C 153.23945,81.673554 153.47278,80.593555 153.47279,79.073551 M 166.00185,79.133551 C 166.00184,81.013555 165.56851,82.42022 164.70185,83.353551 C 163.95518,84.166885 162.95518,84.573551 161.70185,84.573551 C 160.39518,84.573551 159.37518,84.153552 158.64185,83.313551 C 157.80185,82.38022 157.38185,80.986888 157.38185,79.133551 C 157.38185,77.266892 157.80185,75.860227 158.64185,74.913551 C 159.38851,74.073562 160.40851,73.653562 161.70185,73.653551 C 162.95518,73.653562 163.95518,74.066895 164.70185,74.893551 C 165.56851,75.840227 166.00184,77.253558 166.00185,79.133551 M 164.24185,79.133551 C 164.24184,76.386893 163.39518,75.013561 161.70185,75.013551 C 159.99518,75.013561 159.14185,76.386893 159.14185,79.133551 C 159.14185,81.853554 159.99518,83.213553 161.70185,83.213551 C 163.39518,83.213553 164.24184,81.853554 164.24185,79.133551 M 175.04685,74.213551 L 174.32685,75.453551 C 173.86018,75.226894 173.40684,75.113561 172.96685,75.113551 C 172.15351,75.113561 171.46685,75.526894 170.90685,76.353551 L 170.90685,83.133551 L 172.40685,83.133551 L 172.40685,84.413551 L 168.18685,84.413551 L 168.18685,83.133551 L 169.20685,83.133551 L 169.20685,73.813551 L 170.90685,73.813551 L 170.90685,74.673551 C 171.53351,73.993562 172.27351,73.653562 173.12685,73.653551 C 173.82018,73.653562 174.46018,73.840229 175.04685,74.213551 M 181.57873,84.573551 C 180.52539,84.573551 179.67206,84.313551 179.01873,83.793551 C 178.25872,83.206886 177.87872,82.366887 177.87873,81.273551 L 177.87873,75.133551 L 176.43873,75.133551 L 176.43873,73.813551 L 177.87873,73.833551 L 177.87873,71.373551 L 179.57873,71.373551 L 179.57873,73.813551 L 181.57873,73.813551 L 181.57873,75.133551 L 179.57873,75.133551 L 179.57873,81.293551 C 179.57872,81.826887 179.74539,82.266887 180.07873,82.613551 C 180.42539,82.960219 180.92539,83.133553 181.57873,83.133551 L 181.57873,84.573551 M 191.65091,84.413551 L 189.89091,84.413551 C 189.75757,84.240218 189.67757,83.980218 189.65091,83.633551 C 189.01091,84.273551 188.17091,84.593551 187.13091,84.593551 C 186.07758,84.593551 185.23758,84.340218 184.61091,83.833551 C 183.91758,83.273552 183.57091,82.453553 183.57091,81.373551 C 183.57091,80.346889 183.97091,79.52689 184.77091,78.913551 C 185.49091,78.353557 186.36424,78.073558 187.39091,78.073551 C 188.35091,78.073558 189.10424,78.193558 189.65091,78.433551 L 189.65091,77.113551 C 189.65091,75.740227 188.99757,75.053561 187.69091,75.053551 C 186.79758,75.053561 186.03091,75.266894 185.39091,75.693551 L 184.83091,74.373551 C 185.76424,73.893562 186.77758,73.653562 187.87091,73.653551 C 190.19091,73.653562 191.35091,74.833561 191.35091,77.193551 L 191.35091,82.073551 C 191.35091,82.886886 191.3709,83.426886 191.41091,83.693551 C 191.42424,83.746885 191.50424,83.986885 191.65091,84.413551 M 189.65091,82.153551 L 189.65091,79.753551 C 189.15757,79.52689 188.49757,79.413556 187.67091,79.413551 C 186.13758,79.413556 185.37091,80.106889 185.37091,81.493551 C 185.37091,82.653553 186.05091,83.233553 187.41091,83.233551 C 188.22424,83.233553 188.97091,82.873553 189.65091,82.153551 M 203.33685,84.413551 L 201.63685,84.413551 L 201.63685,77.613551 C 201.63684,76.773559 201.51684,76.166893 201.27685,75.793551 C 200.98351,75.340227 200.45684,75.113561 199.69685,75.113551 C 198.68351,75.113561 197.73685,75.586893 196.85685,76.533551 L 196.85685,84.413551 L 195.15685,84.413551 L 195.15685,73.833551 L 196.85685,73.833551 L 196.85685,74.873551 C 197.73685,74.060228 198.73018,73.653562 199.83685,73.653551 C 200.91684,73.653562 201.72351,73.886895 202.25685,74.353551 C 202.97684,74.966894 203.33684,76.05356 203.33685,77.613551 L 203.33685,84.413551 M 211.14904,84.573551 C 210.0957,84.573551 209.24237,84.313551 208.58904,83.793551 C 207.82904,83.206886 207.44904,82.366887 207.44904,81.273551 L 207.44904,75.133551 L 206.00904,75.133551 L 206.00904,73.813551 L 207.44904,73.833551 L 207.44904,71.373551 L 209.14904,71.373551 L 209.14904,73.813551 L 211.14904,73.813551 L 211.14904,75.133551 L 209.14904,75.133551 L 209.14904,81.293551 C 209.14903,81.826887 209.3157,82.266887 209.64904,82.613551 C 209.9957,82.960219 210.4957,83.133553 211.14904,83.133551 L 211.14904,84.573551 M 216.06123,74.893551 C 216.06122,75.240227 215.93456,75.540227 215.68123,75.793551 C 215.42789,76.046893 215.12789,76.17356 214.78123,76.173551 C 214.42122,76.17356 214.11456,76.046893 213.86123,75.793551 C 213.60789,75.540227 213.48122,75.240227 213.48123,74.893551 C 213.48122,74.533561 213.60789,74.226895 213.86123,73.973551 C 214.11456,73.720229 214.42122,73.593562 214.78123,73.593551 C 215.12789,73.593562 215.42789,73.720229 215.68123,73.973551 C 215.93456,74.226895 216.06122,74.533561 216.06123,74.893551 M 216.00123,83.433551 C 216.00122,84.513551 215.48122,85.600217 214.44123,86.693551 L 213.96123,86.293551 C 214.10789,86.160216 214.26789,85.91355 214.44123,85.553551 C 214.62789,85.193551 214.72122,84.906884 214.72123,84.693551 C 214.72122,84.533551 214.66122,84.446885 214.54123,84.433551 C 213.79456,84.326885 213.42123,83.926885 213.42123,83.233551 C 213.42123,82.886886 213.54789,82.606886 213.80123,82.393551 C 214.05456,82.166887 214.36122,82.053554 214.72123,82.053551 C 215.06789,82.053554 215.36789,82.193554 215.62123,82.473551 C 215.87456,82.753553 216.00122,83.073553 216.00123,83.433551"
         id="text3175" />
    </g>
    <rect
       style="opacity:1;fill:#000000;fill-opacity:1;stroke:none;stroke-width:2;stroke-linecap:square;stroke-linejoin:miter;stroke-miterlimit:4;stroke-dasharray:none;stroke-dashoffset:0;stroke-opacity:1"
       id="rect3459"
       width="378"
       height="70"
       x="7.15518"
       y="71.965324" />
    <g
       id="g3403"
       transform="translate(3.0783234,76.990093)">
      <path
         transform="matrix(1.3410092,0,0,1.341606,-10.531627,-10.499046)"
         d="M 29.875,10.78125 L 23.125,23.375 C 22.624331,24.319163 21.501962,24.746732 20.5,24.375 L 13.125,21.65625 L 20.65625,33.8125 C 21.211902,34.710954 21.025785,35.880837 20.21875,36.5625 L 14.1875,41.59375 L 28.4375,41.15625 C 29.489719,41.127264 30.405596,41.870585 30.59375,42.90625 L 31.9375,50.6875 L 38.71875,38.09375 C 39.21725,37.165061 40.31959,36.740062 41.3125,37.09375 L 48.6875,39.78125 L 41.15625,27.65625 C 40.600598,26.757796 40.786715,25.587913 41.59375,24.90625 L 47.65625,19.84375 L 33.375,20.28125 C 32.322781,20.310236 31.406904,19.566915 31.21875,18.53125 L 29.875,10.78125 z"
         id="path3405"
         style="opacity:1;fill:#ffffff;fill-opacity:1;stroke:#828282;stroke-width:1.49108231;stroke-linecap:square;stroke-linejoin:miter;stroke-miterlimit:4;stroke-dasharray:none;stroke-dashoffset:0;stroke-opacity:1"
         inkscape:original="M 30.90625 4.34375 L 21.25 22.375 L 8.0625 17.53125 L 18.84375 34.9375 L 8.0625 43.90625 L 28.5 43.28125 L 30.90625 57.09375 L 40.59375 39.09375 L 53.75 43.90625 L 42.96875 26.53125 L 53.75 17.53125 L 33.3125 18.15625 L 30.90625 4.34375 z "
         inkscape:radius="-2.1316667"
         sodipodi:type="inkscape:offset" />
      <path
         transform="matrix(1.3410092,0,0,1.341606,-10.531627,-10.499046)"
         d="M 28.71875,17.96875 L 25.21875,24.5 C 24.157459,26.482293 21.795409,27.376402 19.6875,26.59375 L 18.75,26.25 L 22.65625,32.5625 C 23.849715,34.470647 23.449201,36.967181 21.71875,38.40625 L 21,39 L 28.375,38.78125 C 30.608351,38.715654 32.551325,40.299311 32.9375,42.5 L 33.125,43.5 L 36.625,36.96875 C 37.684119,35.001977 40.026107,34.110425 42.125,34.875 L 43.0625,35.21875 L 39.15625,28.90625 C 37.981246,27.004918 38.380548,24.529242 40.09375,23.09375 L 40.90625,22.4375 L 33.4375,22.65625 C 31.204149,22.721846 29.261175,21.138189 28.875,18.9375 L 28.71875,17.96875 z"
         id="path3407"
         style="opacity:1;fill:#cccccc;fill-opacity:1;stroke:#7f7f7f;stroke-width:1.49108231;stroke-linecap:square;stroke-linejoin:miter;stroke-miterlimit:4;stroke-dasharray:none;stroke-dashoffset:0;stroke-opacity:1"
         inkscape:original="M 30.90625 4.34375 L 21.25 22.375 L 8.0625 17.53125 L 18.84375 34.9375 L 8.0625 43.90625 L 28.5 43.28125 L 30.90625 57.09375 L 40.59375 39.09375 L 53.75 43.90625 L 42.96875 26.53125 L 53.75 17.53125 L 33.3125 18.15625 L 30.90625 4.34375 z "
         inkscape:radius="-4.4976888"
         sodipodi:type="inkscape:offset" />
      <path
         transform="matrix(0.453862,0,0,0.454064,14.228434,19.765196)"
         d="M 36.5625,15.96875 C 31.974632,15.96875 28.21875,19.724632 28.21875,24.3125 C 28.21875,28.900368 31.974632,32.65625 36.5625,32.65625 C 41.150368,32.65625 44.90625,28.900368 44.90625,24.3125 C 44.90625,19.724632 41.150368,15.96875 36.5625,15.96875 z"
         id="path3409"
         style="opacity:1;fill:#ffffff;fill-opacity:1;stroke:#7f7f7f;stroke-width:4.40564537;stroke-linecap:square;stroke-linejoin:miter;stroke-miterlimit:4;stroke-dasharray:none;stroke-dashoffset:0;stroke-opacity:1"
         inkscape:original="M 36.5625 18 C 33.078 18 30.25 20.828 30.25 24.3125 C 30.25 27.797 33.078 30.625 36.5625 30.625 C 40.047 30.625 42.875 27.797 42.875 24.3125 C 42.875 20.828 40.047 18 36.5625 18 z "
         inkscape:radius="2.0392611"
         sodipodi:type="inkscape:offset" />
    </g>
    <g
       id="g3411"
       transform="translate(167.10169,48.147304)"
       style="fill:#ffffff">
      <text
         sodipodi:linespacing="125%"
         id="text3413"
         y="64.262489"
         x="-101.9382"
         style="font-size:40px;font-style:normal;font-variant:normal;font-weight:normal;font-stretch:normal;text-align:start;line-height:125%;writing-mode:lr-tb;text-anchor:start;fill:#ffffff;fill-opacity:1;stroke:none;stroke-width:1px;stroke-linecap:butt;stroke-linejoin:miter;stroke-opacity:1;font-family:Lacuna Regular;-inkscape-font-specification:Lacuna Regular"
         xml:space="preserve"><tspan
           y="64.262489"
           x="-101.9382"
           id="tspan3415"
           sodipodi:role="line">Elastic </tspan></text>
      <text
         sodipodi:linespacing="125%"
         id="text3417"
         y="84.413551"
         x="-98.774399"
         style="font-size:40px;font-style:normal;font-variant:normal;font-weight:normal;font-stretch:normal;text-align:start;line-height:125%;writing-mode:lr-tb;text-anchor:start;fill:#ffffff;fill-opacity:1;stroke:none;stroke-width:1px;stroke-linecap:butt;stroke-linejoin:miter;stroke-opacity:1;font-family:Lacuna Regular;-inkscape-font-specification:Lacuna Regular"
         xml:space="preserve"><tspan
           style="font-size:20px;fill:#ffffff"
           y="84.413551"
           x="-98.774399"
           id="tspan3419"
           sodipodi:role="line">intuitive css framework !important;</tspan></text>
    </g>
  </g>
</svg>
