<?xml version="1.0" encoding="UTF-8" standalone="no"?>
<!-- Created with Inkscape (http://www.inkscape.org/) -->
<svg
   xmlns:dc="http://purl.org/dc/elements/1.1/"
   xmlns:cc="http://creativecommons.org/ns#"
   xmlns:rdf="http://www.w3.org/1999/02/22-rdf-syntax-ns#"
   xmlns:svg="http://www.w3.org/2000/svg"
   xmlns="http://www.w3.org/2000/svg"
   xmlns:sodipodi="http://sodipodi.sourceforge.net/DTD/sodipodi-0.dtd"
   xmlns:inkscape="http://www.inkscape.org/namespaces/inkscape"
   width="378"
   height="138"
   id="svg2488"
   sodipodi:version="0.32"
   inkscape:version="0.46"
   version="1.0"
   sodipodi:docname="logo.svg"
   inkscape:output_extension="org.inkscape.output.svg.inkscape">
  <defs
     id="defs2490">
    <inkscape:perspective
       sodipodi:type="inkscape:persp3d"
       inkscape:vp_x="0 : 32 : 1"
       inkscape:vp_y="0 : 1000 : 0"
       inkscape:vp_z="64 : 32 : 1"
       inkscape:persp3d-origin="32 : 21.333333 : 1"
       id="perspective2496" />
    <inkscape:perspective
       id="perspective3338"
       inkscape:persp3d-origin="372.04724 : 350.78739 : 1"
       inkscape:vp_z="744.09448 : 526.18109 : 1"
       inkscape:vp_y="0 : 1000 : 0"
       inkscape:vp_x="0 : 526.18109 : 1"
       sodipodi:type="inkscape:persp3d" />
  </defs>
  <sodipodi:namedview
     id="base"
     pagecolor="#ffffff"
     bordercolor="#666666"
     borderopacity="1.0"
     inkscape:pageopacity="0.0"
     inkscape:pageshadow="2"
     inkscape:zoom="1"
     inkscape:cx="191.81776"
     inkscape:cy="62.875275"
     inkscape:current-layer="layer1"
     showgrid="true"
     inkscape:document-units="px"
     inkscape:grid-bbox="true" />
  <metadata
     id="metadata2493">
    <rdf:RDF>
      <cc:Work
         rdf:about="">
        <dc:format>image/svg+xml</dc:format>
        <dc:type
           rdf:resource="http://purl.org/dc/dcmitype/StillImage" />
      </cc:Work>
    </rdf:RDF>
  </metadata>
  <g
     id="layer1"
     inkscape:label="Layer 1"
     inkscape:groupmode="layer"
     transform="translate(-7.1551802,-3.9653243)">
    <g
       id="g3356"
       transform="translate(3.0783234,4.9900931)">
      <path
         transform="matrix(1.3410092,0,0,1.341606,-10.531627,-10.499046)"
         d="M 29.875,10.78125 L 23.125,23.375 C 22.624331,24.319163 21.501962,24.746732 20.5,24.375 L 13.125,21.65625 L 20.65625,33.8125 C 21.211902,34.710954 21.025785,35.880837 20.21875,36.5625 L 14.1875,41.59375 L 28.4375,41.15625 C 29.489719,41.127264 30.405596,41.870585 30.59375,42.90625 L 31.9375,50.6875 L 38.71875,38.09375 C 39.21725,37.165061 40.31959,36.740062 41.3125,37.09375 L 48.6875,39.78125 L 41.15625,27.65625 C 40.600598,26.757796 40.786715,25.587913 41.59375,24.90625 L 47.65625,19.84375 L 33.375,20.28125 C 32.322781,20.310236 31.406904,19.566915 31.21875,18.53125 L 29.875,10.78125 z"
         id="path2502"
         style="opacity:1;fill:#ffffff;fill-opacity:1;stroke:#828282;stroke-width:1.49108231;stroke-linecap:square;stroke-linejoin:miter;stroke-miterlimit:4;stroke-dasharray:none;stroke-dashoffset:0;stroke-opacity:1"
         inkscape:original="M 30.90625 4.34375 L 21.25 22.375 L 8.0625 17.53125 L 18.84375 34.9375 L 8.0625 43.90625 L 28.5 43.28125 L 30.90625 57.09375 L 40.59375 39.09375 L 53.75 43.90625 L 42.96875 26.53125 L 53.75 17.53125 L 33.3125 18.15625 L 30.90625 4.34375 z "
         inkscape:radius="-2.1316667"
         sodipodi:type="inkscape:offset" />
      <path
         transform="matrix(1.3410092,0,0,1.341606,-10.531627,-10.499046)"
         d="M 28.71875,17.96875 L 25.21875,24.5 C 24.157459,26.482293 21.795409,27.376402 19.6875,26.59375 L 18.75,26.25 L 22.65625,32.5625 C 23.849715,34.470647 23.449201,36.967181 21.71875,38.40625 L 21,39 L 28.375,38.78125 C 30.608351,38.715654 32.551325,40.299311 32.9375,42.5 L 33.125,43.5 L 36.625,36.96875 C 37.684119,35.001977 40.026107,34.110425 42.125,34.875 L 43.0625,35.21875 L 39.15625,28.90625 C 37.981246,27.004918 38.380548,24.529242 40.09375,23.09375 L 40.90625,22.4375 L 33.4375,22.65625 C 31.204149,22.721846 29.261175,21.138189 28.875,18.9375 L 28.71875,17.96875 z"
         id="path3348"
         style="opacity:1;fill:#cccccc;fill-opacity:1;stroke:#7f7f7f;stroke-width:1.49108231;stroke-linecap:square;stroke-linejoin:miter;stroke-miterlimit:4;stroke-dasharray:none;stroke-dashoffset:0;stroke-opacity:1"
         inkscape:original="M 30.90625 4.34375 L 21.25 22.375 L 8.0625 17.53125 L 18.84375 34.9375 L 8.0625 43.90625 L 28.5 43.28125 L 30.90625 57.09375 L 40.59375 39.09375 L 53.75 43.90625 L 42.96875 26.53125 L 53.75 17.53125 L 33.3125 18.15625 L 30.90625 4.34375 z "
         inkscape:radius="-4.4976888"
         sodipodi:type="inkscape:offset" />
      <path
         transform="matrix(0.453862,0,0,0.454064,14.228434,19.765196)"
         d="M 36.5625,15.96875 C 31.974632,15.96875 28.21875,19.724632 28.21875,24.3125 C 28.21875,28.900368 31.974632,32.65625 36.5625,32.65625 C 41.150368,32.65625 44.90625,28.900368 44.90625,24.3125 C 44.90625,19.724632 41.150368,15.96875 36.5625,15.96875 z"
         id="path3354"
         style="opacity:1;fill:#ffffff;fill-opacity:1;stroke:#7f7f7f;stroke-width:4.40564537;stroke-linecap:square;stroke-linejoin:miter;stroke-miterlimit:4;stroke-dasharray:none;stroke-dashoffset:0;stroke-opacity:1"
         inkscape:original="M 36.5625 18 C 33.078 18 30.25 20.828 30.25 24.3125 C 30.25 27.797 33.078 30.625 36.5625 30.625 C 40.047 30.625 42.875 27.797 42.875 24.3125 C 42.875 20.828 40.047 18 36.5625 18 z "
         inkscape:radius="2.0392611"
         sodipodi:type="inkscape:offset" />
    </g>
    <g
       id="g3373"
       transform="translate(167.10169,-23.852696)">
      <path
         style="font-size:40px;font-style:normal;font-variant:normal;font-weight:normal;font-stretch:normal;text-align:start;line-height:125%;writing-mode:lr-tb;text-anchor:start;fill:#000000;fill-opacity:1;stroke:none;stroke-width:1px;stroke-linecap:butt;stroke-linejoin:miter;stroke-opacity:1;font-family:Lacuna Regular;-inkscape-font-specification:Lacuna Regular"
         d="M -78.938202,64.262489 L -97.218202,64.262489 L -97.258202,33.062489 L -79.618202,33.062489 L -79.618202,35.942489 L -93.778202,35.942489 L -93.778202,46.782489 L -81.178202,46.782489 L -81.178202,49.662489 L -93.778202,49.662489 L -93.778202,61.382489 L -78.938202,61.382489 L -78.938202,64.262489 M -67.035077,64.702489 C -70.768416,64.702489 -72.635081,62.729158 -72.635077,58.782489 L -72.635077,31.542489 L -69.235077,31.542489 L -69.235077,57.942489 C -69.235084,59.329161 -69.128417,60.24916 -68.915077,60.702489 C -68.621751,61.262492 -67.995085,61.582492 -67.035077,61.662489 L -67.035077,64.702489 M -46.868827,64.262489 L -50.388827,64.262489 C -50.655508,63.915823 -50.815508,63.395824 -50.868827,62.702489 C -52.14884,63.98249 -53.828838,64.622489 -55.908827,64.622489 C -58.0155,64.622489 -59.695499,64.115823 -60.948827,63.102489 C -62.335496,61.982492 -63.028829,60.342493 -63.028827,58.182489 C -63.028829,56.129164 -62.22883,54.489166 -60.628827,53.262489 C -59.188833,52.142501 -57.442168,51.582502 -55.388827,51.582489 C -53.468838,51.582502 -51.962173,51.822502 -50.868827,52.302489 L -50.868827,49.662489 C -50.868841,46.91584 -52.175506,45.542508 -54.788827,45.542489 C -56.575502,45.542508 -58.108834,45.969174 -59.388827,46.822489 L -60.508827,44.182489 C -58.642166,43.22251 -56.615502,42.742511 -54.428827,42.742489 C -49.788842,42.742511 -47.468844,45.102508 -47.468827,49.822489 L -47.468827,59.582489 C -47.468844,61.209159 -47.428844,62.289158 -47.348827,62.822489 C -47.322178,62.929157 -47.162178,63.409157 -46.868827,64.262489 M -50.868827,59.742489 L -50.868827,54.942489 C -51.855507,54.489166 -53.175505,54.262499 -54.828827,54.262489 C -57.895501,54.262499 -59.428832,55.649165 -59.428827,58.422489 C -59.428832,60.742493 -58.068834,61.902492 -55.348827,61.902489 C -53.722171,61.902492 -52.22884,61.182492 -50.868827,59.742489 M -27.856952,58.822489 C -27.856968,60.742493 -28.616967,62.209158 -30.136952,63.222489 C -31.470297,64.129156 -33.150296,64.582489 -35.176952,64.582489 C -36.670292,64.582489 -38.030291,64.329156 -39.256952,63.822489 C -39.790289,63.609157 -40.723622,63.10249 -42.056952,62.302489 L -40.456952,59.782489 C -38.723624,61.035826 -37.003625,61.662492 -35.296952,61.662489 C -32.68363,61.662492 -31.376964,60.782493 -31.376952,59.022489 C -31.376964,58.009162 -31.816964,57.142496 -32.696952,56.422489 C -33.203629,55.995831 -34.270295,55.369165 -35.896952,54.542489 C -37.683625,53.635833 -38.923623,52.889167 -39.616952,52.302489 C -40.976955,51.155836 -41.656954,49.835837 -41.656952,48.342489 C -41.656954,46.502507 -40.923621,45.075842 -39.456952,44.062489 C -38.176957,43.155844 -36.576959,42.702511 -34.656952,42.702489 C -32.44363,42.702511 -30.323632,43.289177 -28.296952,44.462489 L -29.616952,46.942489 C -31.483631,46.009174 -33.056963,45.542508 -34.336952,45.542489 C -35.350294,45.542508 -36.190293,45.742508 -36.856952,46.142489 C -37.656958,46.622507 -38.056958,47.302506 -38.056952,48.182489 C -38.056958,48.982505 -37.616958,49.729171 -36.736952,50.422489 C -36.336959,50.715836 -35.29696,51.329169 -33.616952,52.262489 C -31.723631,53.3025 -30.456965,54.115833 -29.816952,54.702489 C -28.5103,55.875831 -27.856968,57.249163 -27.856952,58.822489 M -14.435077,64.582489 C -16.541753,64.582489 -18.248418,64.06249 -19.555077,63.022489 C -21.075082,61.849158 -21.835081,60.16916 -21.835077,57.982489 L -21.835077,45.702489 L -24.715077,45.702489 L -24.715077,43.062489 L -21.835077,43.102489 L -21.835077,38.182489 L -18.435077,38.182489 L -18.435077,43.062489 L -14.435077,43.062489 L -14.435077,45.702489 L -18.435077,45.702489 L -18.435077,58.022489 C -18.435085,59.089161 -18.101752,59.96916 -17.435077,60.662489 C -16.741753,61.355826 -15.741754,61.702492 -14.435077,61.702489 L -14.435077,64.582489 M -4.4507019,37.302489 C -4.4507097,37.889182 -4.6640428,38.395849 -5.0907019,38.822489 C -5.5173753,39.249181 -6.0240415,39.462514 -6.6107019,39.462489 C -7.1973736,39.462514 -7.7040398,39.249181 -8.1307019,38.822489 C -8.5307056,38.395849 -8.7307054,37.889182 -8.7307019,37.302489 C -8.7307054,36.71585 -8.5307056,36.209184 -8.1307019,35.782489 C -7.7040398,35.355852 -7.1973736,35.142518 -6.6107019,35.142489 C -5.9973748,35.142518 -5.4907087,35.355852 -5.0907019,35.782489 C -4.6640428,36.182517 -4.4507097,36.689184 -4.4507019,37.302489 M -2.3307019,64.262489 L -10.650702,64.262489 L -10.650702,61.702489 L -8.2907019,61.702489 L -8.2907019,43.102489 L -4.8907019,43.102489 L -4.8907019,61.702489 L -2.3307019,61.702489 L -2.3307019,64.262489 M 15.993673,61.742489 C 14.313658,63.66249 12.19366,64.622489 9.6336731,64.622489 C 7.1803318,64.622489 5.2203338,63.78249 3.7536731,62.102489 C 2.0736703,60.235827 1.2336711,57.449163 1.2336731,53.742489 C 1.2336711,50.00917 2.0336703,47.19584 3.6336731,45.302489 C 5.0736673,43.595843 7.0736653,42.742511 9.6336731,42.742489 C 11.926994,42.742511 13.820325,43.569177 15.313673,45.222489 L 13.353673,47.182489 C 12.286993,46.089174 11.046995,45.542508 9.6336731,45.542489 C 6.4336659,45.542508 4.8336675,48.275839 4.8336731,53.742489 C 4.8336675,59.155828 6.4336659,61.862492 9.6336731,61.862489 C 11.446994,61.862492 12.913659,61.169159 14.033673,59.782489 L 15.993673,61.742489"
         id="text2383" />
      <path
         style="font-size:40px;font-style:normal;font-variant:normal;font-weight:normal;font-stretch:normal;text-align:start;line-height:125%;writing-mode:lr-tb;text-anchor:start;fill:#000000;fill-opacity:1;stroke:none;stroke-width:1px;stroke-linecap:butt;stroke-linejoin:miter;stroke-opacity:1;font-family:Lacuna Regular;-inkscape-font-specification:Lacuna Regular"
         d="M -94.874399,70.933551 C -94.874403,71.226898 -94.981069,71.480231 -95.194399,71.693551 C -95.407736,71.906897 -95.661069,72.013564 -95.954399,72.013551 C -96.247735,72.013564 -96.501068,71.906897 -96.714399,71.693551 C -96.914401,71.480231 -97.014401,71.226898 -97.014399,70.933551 C -97.014401,70.640232 -96.914401,70.386899 -96.714399,70.173551 C -96.501068,69.960232 -96.247735,69.853566 -95.954399,69.853551 C -95.647735,69.853566 -95.394402,69.960232 -95.194399,70.173551 C -94.981069,70.373565 -94.874403,70.626898 -94.874399,70.933551 M -93.814399,84.413551 L -97.974399,84.413551 L -97.974399,83.133551 L -96.794399,83.133551 L -96.794399,73.833551 L -95.094399,73.833551 L -95.094399,83.133551 L -93.814399,83.133551 L -93.814399,84.413551 M -82.952211,84.413551 L -84.652211,84.413551 L -84.652211,77.613551 C -84.65222,76.773559 -84.77222,76.166893 -85.012211,75.793551 C -85.305552,75.340227 -85.832219,75.113561 -86.592211,75.113551 C -87.60555,75.113561 -88.552216,75.586893 -89.432211,76.533551 L -89.432211,84.413551 L -91.132211,84.413551 L -91.132211,73.833551 L -89.432211,73.833551 L -89.432211,74.873551 C -88.552216,74.060228 -87.558883,73.653562 -86.452211,73.653551 C -85.372219,73.653562 -84.565553,73.886895 -84.032211,74.353551 C -83.312221,74.966894 -82.952221,76.05356 -82.952211,77.613551 L -82.952211,84.413551 M -75.140024,84.573551 C -76.193362,84.573551 -77.046694,84.313551 -77.700024,83.793551 C -78.460026,83.206886 -78.840026,82.366887 -78.840024,81.273551 L -78.840024,75.133551 L -80.280024,75.133551 L -80.280024,73.813551 L -78.840024,73.833551 L -78.840024,71.373551 L -77.140024,71.373551 L -77.140024,73.813551 L -75.140024,73.813551 L -75.140024,75.133551 L -77.140024,75.133551 L -77.140024,81.293551 C -77.140028,81.826887 -76.973361,82.266887 -76.640024,82.613551 C -76.293362,82.960219 -75.793362,83.133553 -75.140024,83.133551 L -75.140024,84.573551 M -64.207836,84.413551 L -65.907836,84.413551 L -65.907836,83.473551 C -66.65451,84.206885 -67.581176,84.573551 -68.687836,84.573551 C -69.754507,84.573551 -70.554506,84.326885 -71.087836,83.833551 C -71.794505,83.180219 -72.147838,82.073554 -72.147836,80.513551 L -72.147836,73.813551 L -70.447836,73.813551 L -70.447836,80.613551 C -70.44784,81.533554 -70.32784,82.166887 -70.087836,82.513551 C -69.807841,82.913553 -69.281174,83.113553 -68.507836,83.113551 C -67.481176,83.113553 -66.61451,82.68022 -65.907836,81.813551 L -65.907836,73.813551 L -64.207836,73.813551 L -64.207836,84.413551 M -58.390024,70.933551 C -58.390028,71.226898 -58.496694,71.480231 -58.710024,71.693551 C -58.923361,71.906897 -59.176694,72.013564 -59.470024,72.013551 C -59.76336,72.013564 -60.016693,71.906897 -60.230024,71.693551 C -60.430026,71.480231 -60.530026,71.226898 -60.530024,70.933551 C -60.530026,70.640232 -60.430026,70.386899 -60.230024,70.173551 C -60.016693,69.960232 -59.76336,69.853566 -59.470024,69.853551 C -59.16336,69.853566 -58.910027,69.960232 -58.710024,70.173551 C -58.496694,70.373565 -58.390028,70.626898 -58.390024,70.933551 M -57.330024,84.413551 L -61.490024,84.413551 L -61.490024,83.133551 L -60.310024,83.133551 L -60.310024,73.833551 L -58.610024,73.833551 L -58.610024,83.133551 L -57.330024,83.133551 L -57.330024,84.413551 M -50.647836,84.573551 C -51.701174,84.573551 -52.554507,84.313551 -53.207836,83.793551 C -53.967839,83.206886 -54.347839,82.366887 -54.347836,81.273551 L -54.347836,75.133551 L -55.787836,75.133551 L -55.787836,73.813551 L -54.347836,73.833551 L -54.347836,71.373551 L -52.647836,71.373551 L -52.647836,73.813551 L -50.647836,73.813551 L -50.647836,75.133551 L -52.647836,75.133551 L -52.647836,81.293551 C -52.64784,81.826887 -52.481174,82.266887 -52.147836,82.613551 C -51.801174,82.960219 -51.301175,83.133553 -50.647836,83.133551 L -50.647836,84.573551 M -45.655649,70.933551 C -45.655653,71.226898 -45.762319,71.480231 -45.975649,71.693551 C -46.188986,71.906897 -46.442319,72.013564 -46.735649,72.013551 C -47.028985,72.013564 -47.282318,71.906897 -47.495649,71.693551 C -47.695651,71.480231 -47.795651,71.226898 -47.795649,70.933551 C -47.795651,70.640232 -47.695651,70.386899 -47.495649,70.173551 C -47.282318,69.960232 -47.028985,69.853566 -46.735649,69.853551 C -46.428985,69.853566 -46.175652,69.960232 -45.975649,70.173551 C -45.762319,70.373565 -45.655653,70.626898 -45.655649,70.933551 M -44.595649,84.413551 L -48.755649,84.413551 L -48.755649,83.133551 L -47.575649,83.133551 L -47.575649,73.833551 L -45.875649,73.833551 L -45.875649,83.133551 L -44.595649,83.133551 L -44.595649,84.413551 M -34.293461,73.813551 L -37.973461,84.413551 L -39.733461,84.413551 L -43.413461,73.813551 L -41.593461,73.813551 L -39.213461,81.073551 L -38.893461,82.373551 L -38.813461,82.373551 L -38.453461,81.073551 L -36.073461,73.813551 L -34.293461,73.813551 M -24.671586,79.473551 L -31.071586,79.473551 C -31.058256,80.686888 -30.778256,81.620221 -30.231586,82.273551 C -29.724924,82.86022 -29.058258,83.153553 -28.231586,83.153551 C -27.25826,83.153553 -26.451594,82.773553 -25.811586,82.013551 L -24.851586,82.993551 C -25.851594,84.060218 -26.984927,84.593551 -28.251586,84.593551 C -29.571591,84.593551 -30.644923,84.180218 -31.471586,83.353551 C -32.418254,82.406887 -32.891587,81.020221 -32.891586,79.193551 C -32.891587,77.340225 -32.451588,75.920226 -31.571586,74.933551 C -30.798256,74.066895 -29.798257,73.633562 -28.571586,73.633551 C -27.438259,73.633562 -26.51826,74.033562 -25.811586,74.833551 C -25.051595,75.726893 -24.671596,76.986892 -24.671586,78.613551 L -24.671586,79.473551 M -26.411586,78.273551 C -26.47826,77.166892 -26.67826,76.353559 -27.011586,75.833551 C -27.344926,75.31356 -27.864926,75.053561 -28.571586,75.053551 C -30.05159,75.053561 -30.878256,76.126893 -31.051586,78.273551 L -26.411586,78.273551 M -10.785024,83.153551 C -11.625031,84.113552 -12.68503,84.593551 -13.965024,84.593551 C -15.191694,84.593551 -16.171693,84.173552 -16.905024,83.333551 C -17.745025,82.40022 -18.165025,81.006888 -18.165024,79.153551 C -18.165025,77.286892 -17.765025,75.880227 -16.965024,74.933551 C -16.245027,74.080228 -15.245028,73.653562 -13.965024,73.653551 C -12.818363,73.653562 -11.871698,74.066895 -11.125024,74.893551 L -12.105024,75.873551 C -12.638364,75.326894 -13.258363,75.053561 -13.965024,75.053551 C -15.565027,75.053561 -16.365027,76.420226 -16.365024,79.153551 C -16.365027,81.860221 -15.565027,83.213553 -13.965024,83.213551 C -13.058363,83.213553 -12.325031,82.866886 -11.765024,82.173551 L -10.785024,83.153551 M -2.2025238,81.693551 C -2.2025317,82.653553 -2.5825313,83.386886 -3.3425238,83.893551 C -4.0091966,84.346885 -4.8491957,84.573551 -5.8625238,84.573551 C -6.609194,84.573551 -7.2891933,84.446885 -7.9025238,84.193551 C -8.1691924,84.086885 -8.6358586,83.833552 -9.3025238,83.433551 L -8.5025238,82.173551 C -7.6358596,82.80022 -6.7758605,83.113553 -5.9225238,83.113551 C -4.6158626,83.113553 -3.9625299,82.673553 -3.9625238,81.793551 C -3.9625299,81.286888 -4.1825297,80.853555 -4.6225238,80.493551 C -4.8758624,80.280222 -5.4091952,79.966889 -6.2225238,79.553551 C -7.1158601,79.100223 -7.7358595,78.72689 -8.0825238,78.433551 C -8.7625251,77.860225 -9.1025248,77.200225 -9.1025238,76.453551 C -9.1025248,75.53356 -8.7358585,74.820228 -8.0025238,74.313551 C -7.3625265,73.860229 -6.5625273,73.633562 -5.6025238,73.633551 C -4.4958627,73.633562 -3.4358638,73.926895 -2.4225238,74.513551 L -3.0825238,75.753551 C -4.0158632,75.286894 -4.8025291,75.053561 -5.4425238,75.053551 C -5.9491946,75.053561 -6.3691942,75.153561 -6.7025238,75.353551 C -7.1025268,75.59356 -7.3025266,75.93356 -7.3025238,76.373551 C -7.3025266,76.773559 -7.0825268,77.146892 -6.6425238,77.493551 C -6.4425275,77.640225 -5.922528,77.946891 -5.0825238,78.413551 C -4.1358631,78.933557 -3.5025304,79.340223 -3.1825238,79.633551 C -2.529198,80.220222 -2.2025317,80.906888 -2.2025238,81.693551 M 6.5084137,81.693551 C 6.5084058,82.653553 6.1284062,83.386886 5.3684137,83.893551 C 4.7017409,84.346885 3.8617418,84.573551 2.8484137,84.573551 C 2.1017435,84.573551 1.4217442,84.446885 0.8084137,84.193551 C 0.5417451,84.086885 0.075078896,83.833552 -0.5915863,83.433551 L 0.2084137,82.173551 C 1.0750779,82.80022 1.935077,83.113553 2.7884137,83.113551 C 4.0950749,83.113553 4.7484076,82.673553 4.7484137,81.793551 C 4.7484076,81.286888 4.5284078,80.853555 4.0884137,80.493551 C 3.8350751,80.280222 3.3017423,79.966889 2.4884137,79.553551 C 1.5950774,79.100223 0.975078,78.72689 0.6284137,78.433551 C -0.051587644,77.860225 -0.3915873,77.200225 -0.3915863,76.453551 C -0.3915873,75.53356 -0.024921004,74.820228 0.7084137,74.313551 C 1.348411,73.860229 2.1484102,73.633562 3.1084137,73.633551 C 4.2150748,73.633562 5.2750737,73.926895 6.2884137,74.513551 L 5.6284137,75.753551 C 4.6950743,75.286894 3.9084084,75.053561 3.2684137,75.053551 C 2.7617429,75.053561 2.3417433,75.153561 2.0084137,75.353551 C 1.6084107,75.59356 1.4084109,75.93356 1.4084137,76.373551 C 1.4084109,76.773559 1.6284107,77.146892 2.0684137,77.493551 C 2.26841,77.640225 2.7884095,77.946891 3.6284137,78.413551 C 4.5750744,78.933557 5.2084071,79.340223 5.5284137,79.633551 C 6.1817395,80.220222 6.5084058,80.906888 6.5084137,81.693551 M 17.578101,75.153551 L 15.578101,75.153551 L 15.578101,83.133551 L 17.058101,83.133551 L 17.058101,84.413551 L 12.838101,84.413551 L 12.838101,83.133551 L 13.878101,83.133551 L 13.878101,75.153551 L 12.438101,75.153551 L 12.438101,73.813551 L 13.878101,73.813551 L 13.878101,71.113551 C 13.878099,70.046899 14.264765,69.2469 15.038101,68.713551 C 15.678097,68.286901 16.524763,68.073568 17.578101,68.073551 L 17.578101,69.433551 C 16.244763,69.433566 15.578097,69.980232 15.578101,71.073551 L 15.578101,73.813551 L 17.578101,73.813551 L 17.578101,75.153551 M 26.414039,74.213551 L 25.694039,75.453551 C 25.227365,75.226894 24.774032,75.113561 24.334039,75.113551 C 23.5207,75.113561 22.834034,75.526894 22.274039,76.353551 L 22.274039,83.133551 L 23.774039,83.133551 L 23.774039,84.413551 L 19.554039,84.413551 L 19.554039,83.133551 L 20.574039,83.133551 L 20.574039,73.813551 L 22.274039,73.813551 L 22.274039,74.673551 C 22.900701,73.993562 23.6407,73.653562 24.494039,73.653551 C 25.187365,73.653562 25.827365,73.840229 26.414039,74.213551 M 35.713414,84.413551 L 33.953414,84.413551 C 33.820073,84.240218 33.740073,83.980218 33.713414,83.633551 C 33.073407,84.273551 32.233408,84.593551 31.193414,84.593551 C 30.140077,84.593551 29.300078,84.340218 28.673414,83.833551 C 27.980079,83.273552 27.633413,82.453553 27.633414,81.373551 C 27.633413,80.346889 28.033412,79.52689 28.833414,78.913551 C 29.553411,78.353557 30.426743,78.073558 31.453414,78.073551 C 32.413408,78.073558 33.166741,78.193558 33.713414,78.433551 L 33.713414,77.113551 C 33.713407,75.740227 33.060074,75.053561 31.753414,75.053551 C 30.860076,75.053561 30.09341,75.266894 29.453414,75.693551 L 28.893414,74.373551 C 29.826744,73.893562 30.840076,73.653562 31.933414,73.653551 C 34.253406,73.653562 35.413405,74.833561 35.413414,77.193551 L 35.413414,82.073551 C 35.413405,82.886886 35.433405,83.426886 35.473414,83.693551 C 35.486738,83.746885 35.566738,83.986885 35.713414,84.413551 M 33.713414,82.153551 L 33.713414,79.753551 C 33.220074,79.52689 32.560075,79.413556 31.733414,79.413551 C 30.200077,79.413556 29.433411,80.106889 29.433414,81.493551 C 29.433411,82.653553 30.11341,83.233553 31.473414,83.233551 C 32.286741,83.233553 33.033407,82.873553 33.713414,82.153551 M 53.119351,84.413551 L 51.419351,84.413551 L 51.419351,77.753551 C 51.419337,75.99356 50.759338,75.113561 49.439351,75.113551 C 48.412673,75.113561 47.606008,75.640227 47.019351,76.693551 L 47.019351,84.413551 L 45.319351,84.413551 L 45.319351,77.753551 C 45.319343,75.99356 44.666011,75.113561 43.359351,75.113551 C 42.412679,75.113561 41.599347,75.586893 40.919351,76.533551 L 40.919351,84.413551 L 39.219351,84.413551 L 39.219351,73.813551 L 40.919351,73.813551 L 40.919351,74.873551 C 41.639347,74.060228 42.566013,73.653562 43.699351,73.653551 C 44.952677,73.653562 45.899343,74.140228 46.539351,75.113551 C 47.352674,74.140228 48.39934,73.653562 49.679351,73.653551 C 50.652671,73.653562 51.446004,73.940228 52.059351,74.513551 C 52.766002,75.180227 53.119335,76.15356 53.119351,77.433551 L 53.119351,84.413551 M 64.234664,79.473551 L 57.834664,79.473551 C 57.847994,80.686888 58.127994,81.620221 58.674664,82.273551 C 59.181326,82.86022 59.847992,83.153553 60.674664,83.153551 C 61.64799,83.153553 62.454656,82.773553 63.094664,82.013551 L 64.054664,82.993551 C 63.054656,84.060218 61.921323,84.593551 60.654664,84.593551 C 59.334659,84.593551 58.261327,84.180218 57.434664,83.353551 C 56.487996,82.406887 56.014663,81.020221 56.014664,79.193551 C 56.014663,77.340225 56.454662,75.920226 57.334664,74.933551 C 58.107994,74.066895 59.107993,73.633562 60.334664,73.633551 C 61.467991,73.633562 62.38799,74.033562 63.094664,74.833551 C 63.854655,75.726893 64.234654,76.986892 64.234664,78.613551 L 64.234664,79.473551 M 62.494664,78.273551 C 62.42799,77.166892 62.22799,76.353559 61.894664,75.833551 C 61.561324,75.31356 61.041324,75.053561 60.334664,75.053551 C 58.85466,75.053561 58.027994,76.126893 57.854664,78.273551 L 62.494664,78.273551 M 80.109976,73.813551 L 76.949976,84.413551 L 75.309976,84.413551 L 73.049976,76.493551 L 72.969976,76.493551 L 72.609976,77.893551 L 70.709976,84.413551 L 69.089976,84.413551 L 65.849976,73.813551 L 67.589976,73.813551 L 69.869976,82.373551 L 69.929976,82.373551 L 70.229976,81.053551 L 72.209976,73.813551 L 73.809976,73.813551 L 76.089976,82.373551 L 76.149976,82.373551 L 76.449976,81.053551 L 78.429976,73.813551 L 80.109976,73.813551 M 90.337789,79.133551 C 90.337779,81.013555 89.904446,82.42022 89.037789,83.353551 C 88.291114,84.166885 87.291115,84.573551 86.037789,84.573551 C 84.731118,84.573551 83.711119,84.153552 82.977789,83.313551 C 82.137787,82.38022 81.717788,80.986888 81.717789,79.133551 C 81.717788,77.266892 82.137787,75.860227 82.977789,74.913551 C 83.724452,74.073562 84.744451,73.653562 86.037789,73.653551 C 87.291115,73.653562 88.291114,74.066895 89.037789,74.893551 C 89.904446,75.840227 90.337779,77.253558 90.337789,79.133551 M 88.577789,79.133551 C 88.577781,76.386893 87.731115,75.013561 86.037789,75.013551 C 84.331118,75.013561 83.477786,76.386893 83.477789,79.133551 C 83.477786,81.853554 84.331118,83.213553 86.037789,83.213551 C 87.731115,83.213553 88.577781,81.853554 88.577789,79.133551 M 99.382789,74.213551 L 98.662789,75.453551 C 98.196115,75.226894 97.742782,75.113561 97.302789,75.113551 C 96.48945,75.113561 95.802784,75.526894 95.242789,76.353551 L 95.242789,83.133551 L 96.742789,83.133551 L 96.742789,84.413551 L 92.522789,84.413551 L 92.522789,83.133551 L 93.542789,83.133551 L 93.542789,73.813551 L 95.242789,73.813551 L 95.242789,74.673551 C 95.869451,73.993562 96.60945,73.653562 97.462789,73.653551 C 98.156115,73.653562 98.796115,73.840229 99.382789,74.213551 M 109.96216,84.413551 L 108.12216,84.413551 L 104.76216,78.593551 L 103.30216,80.033551 L 103.30216,84.413551 L 101.60216,84.413551 L 101.60216,68.053551 L 103.30216,68.053551 L 103.30216,77.973551 L 107.42216,73.833551 L 109.50216,73.833551 L 105.88216,77.453551 L 109.96216,84.413551 M 118.98779,68.813551 L 118.70779,80.173551 L 117.34779,80.173551 L 117.06779,68.813551 L 118.98779,68.813551 M 119.34779,83.393551 C 119.34778,83.753552 119.22112,84.060218 118.96779,84.313551 C 118.71445,84.566885 118.41445,84.693551 118.06779,84.693551 C 117.70779,84.693551 117.40112,84.566885 117.14779,84.313551 C 116.89445,84.060218 116.76779,83.753552 116.76779,83.393551 C 116.76779,83.046886 116.89445,82.746886 117.14779,82.493551 C 117.40112,82.24022 117.70779,82.113554 118.06779,82.113551 C 118.41445,82.113554 118.71445,82.24022 118.96779,82.493551 C 119.22112,82.746886 119.34778,83.046886 119.34779,83.393551 M 125.55529,70.933551 C 125.55528,71.226898 125.44862,71.480231 125.23529,71.693551 C 125.02195,71.906897 124.76862,72.013564 124.47529,72.013551 C 124.18195,72.013564 123.92862,71.906897 123.71529,71.693551 C 123.51529,71.480231 123.41529,71.226898 123.41529,70.933551 C 123.41529,70.640232 123.51529,70.386899 123.71529,70.173551 C 123.92862,69.960232 124.18195,69.853566 124.47529,69.853551 C 124.78195,69.853566 125.03529,69.960232 125.23529,70.173551 C 125.44862,70.373565 125.55528,70.626898 125.55529,70.933551 M 126.61529,84.413551 L 122.45529,84.413551 L 122.45529,83.133551 L 123.63529,83.133551 L 123.63529,73.833551 L 125.33529,73.833551 L 125.33529,83.133551 L 126.61529,83.133551 L 126.61529,84.413551 M 143.19748,84.413551 L 141.49748,84.413551 L 141.49748,77.753551 C 141.49746,75.99356 140.83746,75.113561 139.51748,75.113551 C 138.4908,75.113561 137.68413,75.640227 137.09748,76.693551 L 137.09748,84.413551 L 135.39748,84.413551 L 135.39748,77.753551 C 135.39747,75.99356 134.74414,75.113561 133.43748,75.113551 C 132.4908,75.113561 131.67747,75.586893 130.99748,76.533551 L 130.99748,84.413551 L 129.29748,84.413551 L 129.29748,73.813551 L 130.99748,73.813551 L 130.99748,74.873551 C 131.71747,74.060228 132.64414,73.653562 133.77748,73.653551 C 135.0308,73.653562 135.97747,74.140228 136.61748,75.113551 C 137.4308,74.140228 138.47747,73.653562 139.75748,73.653551 C 140.7308,73.653562 141.52413,73.940228 142.13748,74.513551 C 142.84413,75.180227 143.19746,76.15356 143.19748,77.433551 L 143.19748,84.413551 M 155.29279,78.993551 C 155.29278,80.940221 154.87278,82.393553 154.03279,83.353551 C 153.33945,84.140218 152.43945,84.533551 151.33279,84.533551 C 150.27945,84.533551 149.39945,84.260218 148.69279,83.713551 L 148.69279,90.093551 L 146.99279,90.093551 L 146.99279,73.813551 L 148.69279,73.813551 L 148.69279,74.733551 C 149.39945,74.013562 150.29278,73.653562 151.37279,73.653551 C 152.37278,73.653562 153.22611,74.026895 153.93279,74.773551 C 154.83945,75.73356 155.29278,77.140225 155.29279,78.993551 M 153.47279,79.073551 C 153.47278,76.420226 152.71278,75.093561 151.19279,75.093551 C 150.07278,75.093561 149.23945,75.526894 148.69279,76.393551 L 148.69279,82.093551 C 149.17278,82.786886 149.93278,83.133553 150.97279,83.133551 C 151.78612,83.133553 152.38611,82.86022 152.77279,82.313551 C 153.23945,81.673554 153.47278,80.593555 153.47279,79.073551 M 166.00185,79.133551 C 166.00184,81.013555 165.56851,82.42022 164.70185,83.353551 C 163.95518,84.166885 162.95518,84.573551 161.70185,84.573551 C 160.39518,84.573551 159.37518,84.153552 158.64185,83.313551 C 157.80185,82.38022 157.38185,80.986888 157.38185,79.133551 C 157.38185,77.266892 157.80185,75.860227 158.64185,74.913551 C 159.38851,74.073562 160.40851,73.653562 161.70185,73.653551 C 162.95518,73.653562 163.95518,74.066895 164.70185,74.893551 C 165.56851,75.840227 166.00184,77.253558 166.00185,79.133551 M 164.24185,79.133551 C 164.24184,76.386893 163.39518,75.013561 161.70185,75.013551 C 159.99518,75.013561 159.14185,76.386893 159.14185,79.133551 C 159.14185,81.853554 159.99518,83.213553 161.70185,83.213551 C 163.39518,83.213553 164.24184,81.853554 164.24185,79.133551 M 175.04685,74.213551 L 174.32685,75.453551 C 173.86018,75.226894 173.40684,75.113561 172.96685,75.113551 C 172.15351,75.113561 171.46685,75.526894 170.90685,76.353551 L 170.90685,83.133551 L 172.40685,83.133551 L 172.40685,84.413551 L 168.18685,84.413551 L 168.18685,83.133551 L 169.20685,83.133551 L 169.20685,73.813551 L 170.90685,73.813551 L 170.90685,74.673551 C 171.53351,73.993562 172.27351,73.653562 173.12685,73.653551 C 173.82018,73.653562 174.46018,73.840229 175.04685,74.213551 M 181.57873,84.573551 C 180.52539,84.573551 179.67206,84.313551 179.01873,83.793551 C 178.25872,83.206886 177.87872,82.366887 177.87873,81.273551 L 177.87873,75.133551 L 176.43873,75.133551 L 176.43873,73.813551 L 177.87873,73.833551 L 177.87873,71.373551 L 179.57873,71.373551 L 179.57873,73.813551 L 181.57873,73.813551 L 181.57873,75.133551 L 179.57873,75.133551 L 179.57873,81.293551 C 179.57872,81.826887 179.74539,82.266887 180.07873,82.613551 C 180.42539,82.960219 180.92539,83.133553 181.57873,83.133551 L 181.57873,84.573551 M 191.65091,84.413551 L 189.89091,84.413551 C 189.75757,84.240218 189.67757,83.980218 189.65091,83.633551 C 189.01091,84.273551 188.17091,84.593551 187.13091,84.593551 C 186.07758,84.593551 185.23758,84.340218 184.61091,83.833551 C 183.91758,83.273552 183.57091,82.453553 183.57091,81.373551 C 183.57091,80.346889 183.97091,79.52689 184.77091,78.913551 C 185.49091,78.353557 186.36424,78.073558 187.39091,78.073551 C 188.35091,78.073558 189.10424,78.193558 189.65091,78.433551 L 189.65091,77.113551 C 189.65091,75.740227 188.99757,75.053561 187.69091,75.053551 C 186.79758,75.053561 186.03091,75.266894 185.39091,75.693551 L 184.83091,74.373551 C 185.76424,73.893562 186.77758,73.653562 187.87091,73.653551 C 190.19091,73.653562 191.35091,74.833561 191.35091,77.193551 L 191.35091,82.073551 C 191.35091,82.886886 191.3709,83.426886 191.41091,83.693551 C 191.42424,83.746885 191.50424,83.986885 191.65091,84.413551 M 189.65091,82.153551 L 189.65091,79.753551 C 189.15757,79.52689 188.49757,79.413556 187.67091,79.413551 C 186.13758,79.413556 185.37091,80.106889 185.37091,81.493551 C 185.37091,82.653553 186.05091,83.233553 187.41091,83.233551 C 188.22424,83.233553 188.97091,82.873553 189.65091,82.153551 M 203.33685,84.413551 L 201.63685,84.413551 L 201.63685,77.613551 C 201.63684,76.773559 201.51684,76.166893 201.27685,75.793551 C 200.98351,75.340227 200.45684,75.113561 199.69685,75.113551 C 198.68351,75.113561 197.73685,75.586893 196.85685,76.533551 L 196.85685,84.413551 L 195.15685,84.413551 L 195.15685,73.833551 L 196.85685,73.833551 L 196.85685,74.873551 C 197.73685,74.060228 198.73018,73.653562 199.83685,73.653551 C 200.91684,73.653562 201.72351,73.886895 202.25685,74.353551 C 202.97684,74.966894 203.33684,76.05356 203.33685,77.613551 L 203.33685,84.413551 M 211.14904,84.573551 C 210.0957,84.573551 209.24237,84.313551 208.58904,83.793551 C 207.82904,83.206886 207.44904,82.366887 207.44904,81.273551 L 207.44904,75.133551 L 206.00904,75.133551 L 206.00904,73.813551 L 207.44904,73.833551 L 207.44904,71.373551 L 209.14904,71.373551 L 209.14904,73.813551 L 211.14904,73.813551 L 211.14904,75.133551 L 209.14904,75.133551 L 209.14904,81.293551 C 209.14903,81.826887 209.3157,82.266887 209.64904,82.613551 C 209.9957,82.960219 210.4957,83.133553 211.14904,83.133551 L 211.14904,84.573551 M 216.06123,74.893551 C 216.06122,75.240227 215.93456,75.540227 215.68123,75.793551 C 215.42789,76.046893 215.12789,76.17356 214.78123,76.173551 C 214.42122,76.17356 214.11456,76.046893 213.86123,75.793551 C 213.60789,75.540227 213.48122,75.240227 213.48123,74.893551 C 213.48122,74.533561 213.60789,74.226895 213.86123,73.973551 C 214.11456,73.720229 214.42122,73.593562 214.78123,73.593551 C 215.12789,73.593562 215.42789,73.720229 215.68123,73.973551 C 215.93456,74.226895 216.06122,74.533561 216.06123,74.893551 M 216.00123,83.433551 C 216.00122,84.513551 215.48122,85.600217 214.44123,86.693551 L 213.96123,86.293551 C 214.10789,86.160216 214.26789,85.91355 214.44123,85.553551 C 214.62789,85.193551 214.72122,84.906884 214.72123,84.693551 C 214.72122,84.533551 214.66122,84.446885 214.54123,84.433551 C 213.79456,84.326885 213.42123,83.926885 213.42123,83.233551 C 213.42123,82.886886 213.54789,82.606886 213.80123,82.393551 C 214.05456,82.166887 214.36122,82.053554 214.72123,82.053551 C 215.06789,82.053554 215.36789,82.193554 215.62123,82.473551 C 215.87456,82.753553 216.00122,83.073553 216.00123,83.433551"
         id="text3175" />
    </g>
    <rect
       style="opacity:1;fill:#464646;fill-opacity:1;stroke:none;stroke-width:2;stroke-linecap:square;stroke-linejoin:miter;stroke-miterlimit:4;stroke-dasharray:none;stroke-dashoffset:0;stroke-opacity:1"
       id="rect3459"
       width="445"
       height="70"
       x="-1.84482"
       y="71.965324"
       inkscape:export-filename="/home/fernando/Desktop/elastic_v2_website/doc/img/logo.png"
       inkscape:export-xdpi="96"
       inkscape:export-ydpi="96" />
    <g
       id="g3403"
       transform="translate(3.0783234,76.990093)">
      <path
         transform="matrix(1.3410092,0,0,1.341606,-10.531627,-10.499046)"
         d="M 29.875,10.78125 L 23.125,23.375 C 22.624331,24.319163 21.501962,24.746732 20.5,24.375 L 13.125,21.65625 L 20.65625,33.8125 C 21.211902,34.710954 21.025785,35.880837 20.21875,36.5625 L 14.1875,41.59375 L 28.4375,41.15625 C 29.489719,41.127264 30.405596,41.870585 30.59375,42.90625 L 31.9375,50.6875 L 38.71875,38.09375 C 39.21725,37.165061 40.31959,36.740062 41.3125,37.09375 L 48.6875,39.78125 L 41.15625,27.65625 C 40.600598,26.757796 40.786715,25.587913 41.59375,24.90625 L 47.65625,19.84375 L 33.375,20.28125 C 32.322781,20.310236 31.406904,19.566915 31.21875,18.53125 L 29.875,10.78125 z"
         id="path3405"
         style="opacity:1;fill:#ffffff;fill-opacity:1;stroke:#828282;stroke-width:1.49108231;stroke-linecap:square;stroke-linejoin:miter;stroke-miterlimit:4;stroke-dasharray:none;stroke-dashoffset:0;stroke-opacity:1"
         inkscape:original="M 30.90625 4.34375 L 21.25 22.375 L 8.0625 17.53125 L 18.84375 34.9375 L 8.0625 43.90625 L 28.5 43.28125 L 30.90625 57.09375 L 40.59375 39.09375 L 53.75 43.90625 L 42.96875 26.53125 L 53.75 17.53125 L 33.3125 18.15625 L 30.90625 4.34375 z "
         inkscape:radius="-2.1316667"
         sodipodi:type="inkscape:offset" />
      <path
         transform="matrix(1.3410092,0,0,1.341606,-10.531627,-10.499046)"
         d="M 28.71875,17.96875 L 25.21875,24.5 C 24.157459,26.482293 21.795409,27.376402 19.6875,26.59375 L 18.75,26.25 L 22.65625,32.5625 C 23.849715,34.470647 23.449201,36.967181 21.71875,38.40625 L 21,39 L 28.375,38.78125 C 30.608351,38.715654 32.551325,40.299311 32.9375,42.5 L 33.125,43.5 L 36.625,36.96875 C 37.684119,35.001977 40.026107,34.110425 42.125,34.875 L 43.0625,35.21875 L 39.15625,28.90625 C 37.981246,27.004918 38.380548,24.529242 40.09375,23.09375 L 40.90625,22.4375 L 33.4375,22.65625 C 31.204149,22.721846 29.261175,21.138189 28.875,18.9375 L 28.71875,17.96875 z"
         id="path3407"
         style="opacity:1;fill:#cccccc;fill-opacity:1;stroke:#7f7f7f;stroke-width:1.49108231;stroke-linecap:square;stroke-linejoin:miter;stroke-miterlimit:4;stroke-dasharray:none;stroke-dashoffset:0;stroke-opacity:1"
         inkscape:original="M 30.90625 4.34375 L 21.25 22.375 L 8.0625 17.53125 L 18.84375 34.9375 L 8.0625 43.90625 L 28.5 43.28125 L 30.90625 57.09375 L 40.59375 39.09375 L 53.75 43.90625 L 42.96875 26.53125 L 53.75 17.53125 L 33.3125 18.15625 L 30.90625 4.34375 z "
         inkscape:radius="-4.4976888"
         sodipodi:type="inkscape:offset" />
      <path
         transform="matrix(0.453862,0,0,0.454064,14.228434,19.765196)"
         d="M 36.5625,15.96875 C 31.974632,15.96875 28.21875,19.724632 28.21875,24.3125 C 28.21875,28.900368 31.974632,32.65625 36.5625,32.65625 C 41.150368,32.65625 44.90625,28.900368 44.90625,24.3125 C 44.90625,19.724632 41.150368,15.96875 36.5625,15.96875 z"
         id="path3409"
         style="opacity:1;fill:#ffffff;fill-opacity:1;stroke:#7f7f7f;stroke-width:4.40564537;stroke-linecap:square;stroke-linejoin:miter;stroke-miterlimit:4;stroke-dasharray:none;stroke-dashoffset:0;stroke-opacity:1"
         inkscape:original="M 36.5625 18 C 33.078 18 30.25 20.828 30.25 24.3125 C 30.25 27.797 33.078 30.625 36.5625 30.625 C 40.047 30.625 42.875 27.797 42.875 24.3125 C 42.875 20.828 40.047 18 36.5625 18 z "
         inkscape:radius="2.0392611"
         sodipodi:type="inkscape:offset" />
    </g>
    <g
       id="g3411"
       transform="translate(167.10169,48.147304)"
       style="fill:#ffffff">
      <path
         style="font-size:40px;font-style:normal;font-variant:normal;font-weight:normal;font-stretch:normal;text-align:start;line-height:125%;writing-mode:lr-tb;text-anchor:start;fill:#ffffff;fill-opacity:1;stroke:none;stroke-width:1px;stroke-linecap:butt;stroke-linejoin:miter;stroke-opacity:1;font-family:Lacuna Regular;-inkscape-font-specification:Lacuna Regular"
         d="M -98.012421,35.102333 L -79.574921,35.102333 L -79.574921,38.422646 L -94.067108,38.422646 L -94.067108,47.055458 L -80.180389,47.055458 L -80.180389,50.375771 L -94.067108,50.375771 L -94.067108,60.942177 L -79.223358,60.942177 L -79.223358,64.262489 L -98.012421,64.262489 L -98.012421,35.102333 M -72.856171,33.871864 L -69.262421,33.871864 L -69.262421,64.262489 L -72.856171,64.262489 L -72.856171,33.871864 M -51.821014,53.266396 C -54.724671,53.266407 -56.736388,53.598437 -57.856171,54.262489 C -58.975969,54.926561 -59.535864,56.059373 -59.535858,57.660927 C -59.535864,58.936974 -59.119198,59.952598 -58.285858,60.707802 C -57.439512,61.449992 -56.29368,61.821086 -54.848358,61.821083 C -52.856183,61.821086 -51.261133,61.117961 -50.063202,59.711708 C -48.852281,58.292443 -48.246813,56.410935 -48.246796,54.067177 L -48.246796,53.266396 L -51.821014,53.266396 M -44.653046,51.782021 L -44.653046,64.262489 L -48.246796,64.262489 L -48.246796,60.942177 C -49.067125,62.270304 -50.089259,63.253376 -51.313202,63.891396 C -52.537173,64.516395 -54.034568,64.828895 -55.805389,64.828896 C -58.04498,64.828895 -59.828833,64.203896 -61.156952,62.953896 C -62.472059,61.690877 -63.129611,60.004681 -63.129608,57.895302 C -63.129611,55.434373 -62.309299,53.578906 -60.668671,52.328896 C -59.015031,51.078909 -56.554096,50.453909 -53.285858,50.453896 L -48.246796,50.453896 L -48.246796,50.102333 C -48.246813,48.448703 -48.793687,47.172663 -49.887421,46.274208 C -50.968164,45.362769 -52.4916,44.90704 -54.457733,44.907021 C -55.707743,44.90704 -56.92519,45.056779 -58.110077,45.356239 C -59.294979,45.655737 -60.434301,46.104955 -61.528046,46.703896 L -61.528046,43.383583 C -60.212947,42.875792 -58.936906,42.498188 -57.699921,42.250771 C -56.462951,41.990376 -55.258525,41.860168 -54.086639,41.860146 C -50.922592,41.860168 -48.559313,42.68048 -46.996796,44.321083 C -45.434316,45.961726 -44.653067,48.448703 -44.653046,51.782021 M -23.285858,43.032021 L -23.285858,46.430458 C -24.3015,45.909643 -25.356186,45.519018 -26.449921,45.258583 C -27.543684,44.998186 -28.676495,44.867977 -29.848358,44.867958 C -31.632222,44.867977 -32.973366,45.141415 -33.871796,45.688271 C -34.757219,46.235164 -35.199926,47.055475 -35.199921,48.149208 C -35.199926,48.982557 -34.880916,49.640108 -34.242889,50.121864 C -33.604876,50.590628 -32.322325,51.039846 -30.395233,51.469521 L -29.164764,51.742958 C -26.612695,52.289845 -24.802801,53.064584 -23.735077,54.067177 C -22.654366,55.056769 -22.114002,56.443487 -22.113983,58.227333 C -22.114002,60.258587 -22.921293,61.866658 -24.535858,63.051552 C -26.137436,64.236448 -28.344465,64.828895 -31.156952,64.828896 C -32.328836,64.828895 -33.552793,64.711708 -34.828827,64.477333 C -36.091853,64.255979 -37.426487,63.917438 -38.832733,63.461708 L -38.832733,59.750771 C -37.504612,60.440879 -36.196019,60.961711 -34.906952,61.313271 C -33.617897,61.651815 -32.341856,61.821086 -31.078827,61.821083 C -29.38613,61.821086 -28.084048,61.534627 -27.172577,60.961708 C -26.261133,60.375774 -25.805405,59.555463 -25.805389,58.500771 C -25.805405,57.524215 -26.137436,56.775518 -26.801483,56.254677 C -27.452538,55.733852 -28.891339,55.23255 -31.117889,54.750771 L -32.367889,54.457802 C -34.594458,53.989062 -36.20253,53.272917 -37.192108,52.309364 C -38.181694,51.332815 -38.676485,49.998181 -38.676483,48.305458 C -38.676485,46.248184 -37.94732,44.659644 -36.488983,43.539833 C -35.030656,42.420063 -32.960345,41.860168 -30.278046,41.860146 C -28.949933,41.860168 -27.699934,41.957824 -26.528046,42.153114 C -25.356186,42.348449 -24.275458,42.641417 -23.285858,43.032021 M -12.817108,36.176552 L -12.817108,42.387489 L -5.4147644,42.387489 L -5.4147644,45.180458 L -12.817108,45.180458 L -12.817108,57.055458 C -12.817115,58.839318 -12.57623,59.98515 -12.094452,60.492958 C -11.599669,61.000774 -10.603576,61.25468 -9.1061707,61.254677 L -5.4147644,61.254677 L -5.4147644,64.262489 L -9.1061707,64.262489 C -11.879616,64.262489 -13.793677,63.748167 -14.848358,62.719521 C -15.90305,61.677856 -16.430393,59.789838 -16.430389,57.055458 L -16.430389,45.180458 L -19.067108,45.180458 L -19.067108,42.387489 L -16.430389,42.387489 L -16.430389,36.176552 L -12.817108,36.176552 M -0.66867065,42.387489 L 2.9250793,42.387489 L 2.9250793,64.262489 L -0.66867065,64.262489 L -0.66867065,42.387489 M -0.66867065,33.871864 L 2.9250793,33.871864 L 2.9250793,38.422646 L -0.66867065,38.422646 L -0.66867065,33.871864 M 26.167267,43.227333 L 26.167267,46.586708 C 25.151623,46.02683 24.129489,45.610164 23.100861,45.336708 C 22.08522,45.050269 21.056575,44.90704 20.014923,44.907021 C 17.684183,44.90704 15.874289,45.649227 14.585236,47.133583 C 13.296166,48.604953 12.651636,50.675263 12.651642,53.344521 C 12.651636,56.0138 13.296166,58.09062 14.585236,59.574989 C 15.874289,61.046347 17.684183,61.782023 20.014923,61.782021 C 21.056575,61.782023 22.08522,61.645304 23.100861,61.371864 C 24.129489,61.085409 25.151623,60.662233 26.167267,60.102333 L 26.167267,63.422646 C 25.164644,63.891396 24.122979,64.242958 23.042267,64.477333 C 21.974543,64.711708 20.835221,64.828895 19.624298,64.828896 C 16.330018,64.828895 13.712833,63.79374 11.772736,61.723427 C 9.8326283,59.653119 8.8625771,56.860153 8.8625793,53.344521 C 8.8625771,49.776827 9.8391387,46.97084 11.792267,44.926552 C 13.758406,42.882302 16.447205,41.860168 19.858673,41.860146 C 20.96543,41.860168 22.046158,41.977355 23.100861,42.211708 C 24.155531,42.433084 25.177665,42.771625 26.167267,43.227333"
         id="text3413" />
      <path
         style="font-size:40px;font-style:normal;font-variant:normal;font-weight:normal;font-stretch:normal;text-align:start;line-height:125%;writing-mode:lr-tb;text-anchor:start;fill:#ffffff;fill-opacity:1;stroke:none;stroke-width:1px;stroke-linecap:butt;stroke-linejoin:miter;stroke-opacity:1;font-family:Lacuna Regular;-inkscape-font-specification:Lacuna Regular"
         d="M -96.889633,73.476051 L -95.092758,73.476051 L -95.092758,84.413551 L -96.889633,84.413551 L -96.889633,73.476051 M -96.889633,69.218239 L -95.092758,69.218239 L -95.092758,71.493629 L -96.889633,71.493629 L -96.889633,69.218239 M -82.250961,77.811989 L -82.250961,84.413551 L -84.047836,84.413551 L -84.047836,77.870583 C -84.047845,76.835434 -84.249668,76.060695 -84.653305,75.546364 C -85.056959,75.03205 -85.662427,74.774889 -86.469711,74.774879 C -87.439769,74.774889 -88.204742,75.084134 -88.764633,75.702614 C -89.324533,76.321112 -89.604481,77.16421 -89.604477,78.231911 L -89.604477,84.413551 L -91.411118,84.413551 L -91.411118,73.476051 L -89.604477,73.476051 L -89.604477,75.17527 C -89.174793,74.517728 -88.670237,74.026192 -88.090805,73.700661 C -87.504873,73.375151 -86.831046,73.212391 -86.069321,73.212379 C -84.812819,73.212391 -83.862299,73.603015 -83.217758,74.384254 C -82.573238,75.159003 -82.250972,76.30158 -82.250961,77.811989 M -76.870102,70.370583 L -76.870102,73.476051 L -73.16893,73.476051 L -73.16893,74.872536 L -76.870102,74.872536 L -76.870102,80.810036 C -76.870106,81.701966 -76.749663,82.274882 -76.508774,82.528786 C -76.261382,82.782694 -75.763336,82.909647 -75.014633,82.909645 L -73.16893,82.909645 L -73.16893,84.413551 L -75.014633,84.413551 C -76.401356,84.413551 -77.358386,84.15639 -77.885727,83.642067 C -78.413073,83.121235 -78.676744,82.177225 -78.676743,80.810036 L -78.676743,74.872536 L -79.995102,74.872536 L -79.995102,73.476051 L -78.676743,73.476051 L -78.676743,70.370583 L -76.870102,70.370583 M -70.98143,80.097145 L -70.98143,73.476051 L -69.184555,73.476051 L -69.184555,80.028786 C -69.184559,81.063945 -68.982736,81.841939 -68.579086,82.36277 C -68.175445,82.877095 -67.569977,83.134256 -66.76268,83.134254 C -65.792635,83.134256 -65.027662,82.825011 -64.467758,82.20652 C -63.901361,81.588033 -63.618158,80.744935 -63.618149,79.677223 L -63.618149,73.476051 L -61.821274,73.476051 L -61.821274,84.413551 L -63.618149,84.413551 L -63.618149,82.733864 C -64.054355,83.397927 -64.562167,83.892719 -65.141586,84.218239 C -65.71451,84.537249 -66.381827,84.696754 -67.143539,84.696754 C -68.400054,84.696754 -69.353829,84.30613 -70.004868,83.524879 C -70.655911,82.743631 -70.981432,81.601054 -70.98143,80.097145 M -66.459946,73.212379 L -66.459946,73.212379 M -58.100571,73.476051 L -56.303696,73.476051 L -56.303696,84.413551 L -58.100571,84.413551 L -58.100571,73.476051 M -58.100571,69.218239 L -56.303696,69.218239 L -56.303696,71.493629 L -58.100571,71.493629 L -58.100571,69.218239 M -50.776352,70.370583 L -50.776352,73.476051 L -47.07518,73.476051 L -47.07518,74.872536 L -50.776352,74.872536 L -50.776352,80.810036 C -50.776356,81.701966 -50.655913,82.274882 -50.415024,82.528786 C -50.167632,82.782694 -49.669586,82.909647 -48.920883,82.909645 L -47.07518,82.909645 L -47.07518,84.413551 L -48.920883,84.413551 C -50.307606,84.413551 -51.264636,84.15639 -51.791977,83.642067 C -52.319323,83.121235 -52.582994,82.177225 -52.582993,80.810036 L -52.582993,74.872536 L -53.901352,74.872536 L -53.901352,73.476051 L -52.582993,73.476051 L -52.582993,70.370583 L -50.776352,70.370583 M -44.702133,73.476051 L -42.905258,73.476051 L -42.905258,84.413551 L -44.702133,84.413551 L -44.702133,73.476051 M -44.702133,69.218239 L -42.905258,69.218239 L -42.905258,71.493629 L -44.702133,71.493629 L -44.702133,69.218239 M -40.444321,73.476051 L -38.540024,73.476051 L -35.122055,82.655739 L -31.704086,73.476051 L -29.799789,73.476051 L -33.901352,84.413551 L -36.342758,84.413551 L -40.444321,73.476051 M -17.963852,78.495583 L -17.963852,79.374489 L -26.225571,79.374489 C -26.147449,80.611472 -25.776355,81.555481 -25.112289,82.20652 C -24.441721,82.851053 -23.510733,83.173318 -22.319321,83.173317 C -21.629224,83.173318 -20.961907,83.088683 -20.317368,82.919411 C -19.666335,82.750142 -19.021805,82.496236 -18.383774,82.157692 L -18.383774,83.856911 C -19.028315,84.130348 -19.689122,84.338682 -20.366196,84.481911 C -21.043287,84.62514 -21.730135,84.696754 -22.426743,84.696754 C -24.171539,84.696754 -25.555001,84.188942 -26.577133,83.173317 C -27.59276,82.157694 -28.100572,80.783998 -28.100571,79.052223 C -28.100572,77.261866 -27.618801,75.842596 -26.655258,74.794411 C -25.68521,73.739734 -24.379872,73.212391 -22.739243,73.212379 C -21.267896,73.212391 -20.105788,73.687651 -19.252914,74.638161 C -18.39355,75.58218 -17.963863,76.867986 -17.963852,78.495583 M -19.760727,77.968239 C -19.773757,76.985173 -20.05045,76.200669 -20.590805,75.614723 C -21.124667,75.028795 -21.834302,74.735827 -22.719711,74.735817 C -23.722321,74.735827 -24.526357,75.019029 -25.131821,75.585426 C -25.730782,76.151841 -26.075834,76.949366 -26.166977,77.978004 L -19.760727,77.968239 M -0.77635193,73.895973 L -0.77635193,75.575661 C -1.2841737,75.295722 -1.7952409,75.087389 -2.3095551,74.950661 C -2.8173753,74.807441 -3.3316977,74.735827 -3.8525238,74.735817 C -5.0178939,74.735827 -5.9228409,75.10692 -6.5673676,75.849098 C -7.2119021,76.584783 -7.5341674,77.619938 -7.5341644,78.954567 C -7.5341674,80.289206 -7.2119021,81.327617 -6.5673676,82.069801 C -5.9228409,82.80548 -5.0178939,83.173318 -3.8525238,83.173317 C -3.3316977,83.173318 -2.8173753,83.104959 -2.3095551,82.968239 C -1.7952409,82.825011 -1.2841737,82.613423 -0.77635193,82.333473 L -0.77635193,83.993629 C -1.2776633,84.228005 -1.7984961,84.403786 -2.3388519,84.520973 C -2.8727138,84.63816 -3.4423746,84.696754 -4.0478363,84.696754 C -5.6949766,84.696754 -7.003569,84.179177 -7.9736176,83.14402 C -8.9436712,82.108866 -9.4286968,80.712383 -9.4286957,78.954567 C -9.4286968,77.17072 -8.940416,75.767727 -7.9638519,74.745583 C -6.9807826,73.723458 -5.6363829,73.212391 -3.9306488,73.212379 C -3.3772705,73.212391 -2.8369065,73.270984 -2.3095551,73.388161 C -1.7822201,73.498849 -1.2711529,73.668119 -0.77635193,73.895973 M 9.3408356,73.798317 L 9.3408356,75.497536 C 8.8330147,75.237128 8.3056715,75.041816 7.7588043,74.911598 C 7.2119226,74.7814 6.6455169,74.716295 6.0595856,74.716286 C 5.1676538,74.716295 4.4970816,74.853014 4.0478668,75.126442 C 3.6051554,75.399888 3.3838014,75.810044 3.3838043,76.356911 C 3.3838014,76.773585 3.5433065,77.102361 3.8623199,77.343239 C 4.1813267,77.577621 4.8226021,77.80223 5.7861481,78.017067 L 6.4013824,78.153786 C 7.6774169,78.427229 8.5823639,78.814599 9.1162262,79.315895 C 9.6565816,79.810691 9.9267636,80.50405 9.9267731,81.395973 C 9.9267636,82.4116 9.5231182,83.215636 8.7158356,83.808083 C 7.9150469,84.400531 6.8115324,84.696754 5.4052887,84.696754 C 4.8193469,84.696754 4.2073683,84.63816 3.5693512,84.520973 C 2.9378383,84.410296 2.2705213,84.241025 1.5673981,84.013161 L 1.5673981,82.157692 C 2.2314588,82.502746 2.885755,82.763162 3.5302887,82.938942 C 4.1748163,83.108214 4.8128365,83.192849 5.4443512,83.192848 C 6.2906996,83.192849 6.9417406,83.04962 7.3974762,82.763161 C 7.853198,82.470194 8.0810623,82.060038 8.0810699,81.532692 C 8.0810623,81.044414 7.9150469,80.670065 7.5830231,80.409645 C 7.2574955,80.149233 6.5380951,79.898582 5.4248199,79.657692 L 4.7998199,79.511208 C 3.6865355,79.276838 2.8824998,78.918765 2.3877106,78.436989 C 1.8929175,77.948714 1.6455219,77.281397 1.6455231,76.435036 C 1.6455219,75.406399 2.0101049,74.612129 2.7392731,74.052223 C 3.4684368,73.492338 4.503592,73.212391 5.8447418,73.212379 C 6.5087983,73.212391 7.1337977,73.261219 7.7197418,73.358864 C 8.3056715,73.456531 8.8460355,73.603015 9.3408356,73.798317 M 19.770523,73.798317 L 19.770523,75.497536 C 19.262702,75.237128 18.735359,75.041816 18.188492,74.911598 C 17.64161,74.7814 17.075204,74.716295 16.489273,74.716286 C 15.597341,74.716295 14.926769,74.853014 14.477554,75.126442 C 14.034843,75.399888 13.813489,75.810044 13.813492,76.356911 C 13.813489,76.773585 13.972994,77.102361 14.292007,77.343239 C 14.611014,77.577621 15.25229,77.80223 16.215836,78.017067 L 16.83107,78.153786 C 18.107104,78.427229 19.012051,78.814599 19.545914,79.315895 C 20.086269,79.810691 20.356451,80.50405 20.356461,81.395973 C 20.356451,82.4116 19.952806,83.215636 19.145523,83.808083 C 18.344734,84.400531 17.24122,84.696754 15.834976,84.696754 C 15.249034,84.696754 14.637056,84.63816 13.999039,84.520973 C 13.367526,84.410296 12.700209,84.241025 11.997086,84.013161 L 11.997086,82.157692 C 12.661146,82.502746 13.315443,82.763162 13.959976,82.938942 C 14.604504,83.108214 15.242524,83.192849 15.874039,83.192848 C 16.720387,83.192849 17.371428,83.04962 17.827164,82.763161 C 18.282885,82.470194 18.51075,82.060038 18.510757,81.532692 C 18.51075,81.044414 18.344734,80.670065 18.012711,80.409645 C 17.687183,80.149233 16.967783,79.898582 15.854507,79.657692 L 15.229507,79.511208 C 14.116223,79.276838 13.312187,78.918765 12.817398,78.436989 C 12.322605,77.948714 12.075209,77.281397 12.075211,76.435036 C 12.075209,75.406399 12.439792,74.612129 13.168961,74.052223 C 13.898124,73.492338 14.933279,73.212391 16.274429,73.212379 C 16.938486,73.212391 17.563485,73.261219 18.149429,73.358864 C 18.735359,73.456531 19.275723,73.603015 19.770523,73.798317 M 35.131851,69.218239 L 35.131851,70.712379 L 33.413101,70.712379 C 32.768565,70.712393 32.319347,70.842601 32.065445,71.103004 C 31.818045,71.363434 31.694347,71.832184 31.694351,72.509254 L 31.694351,73.476051 L 34.653336,73.476051 L 34.653336,74.872536 L 31.694351,74.872536 L 31.694351,84.413551 L 29.887711,84.413551 L 29.887711,74.872536 L 28.168961,74.872536 L 28.168961,73.476051 L 29.887711,73.476051 L 29.887711,72.714333 C 29.887708,71.496898 30.170911,70.611482 30.73732,70.058083 C 31.303723,69.498202 32.202159,69.218254 33.432632,69.218239 L 35.131851,69.218239 M 42.963882,75.155739 C 42.762052,75.038561 42.540698,74.953925 42.29982,74.901833 C 42.065438,74.843248 41.805021,74.813952 41.51857,74.813942 C 40.502939,74.813952 39.72169,75.145982 39.17482,75.810036 C 38.634451,76.467596 38.364269,77.41486 38.364273,78.651833 L 38.364273,84.413551 L 36.557632,84.413551 L 36.557632,73.476051 L 38.364273,73.476051 L 38.364273,75.17527 C 38.741873,74.511217 39.233409,74.019682 39.838882,73.700661 C 40.444345,73.375151 41.180022,73.212391 42.045914,73.212379 C 42.169604,73.212391 42.306323,73.222156 42.45607,73.241676 C 42.605802,73.254708 42.771817,73.277495 42.954117,73.310036 L 42.963882,75.155739 M 49.838882,78.915504 C 48.387054,78.91551 47.381196,79.081525 46.821304,79.413551 C 46.261405,79.745587 45.981458,80.311993 45.981461,81.11277 C 45.981458,81.750794 46.189791,82.258606 46.606461,82.636208 C 47.029634,83.007303 47.60255,83.192849 48.325211,83.192848 C 49.321298,83.192849 50.118823,82.841287 50.717789,82.138161 C 51.323249,81.428528 51.625983,80.487774 51.625992,79.315895 L 51.625992,78.915504 L 49.838882,78.915504 M 53.422867,78.173317 L 53.422867,84.413551 L 51.625992,84.413551 L 51.625992,82.753395 C 51.215827,83.417459 50.70476,83.908995 50.092789,84.228004 C 49.480803,84.540504 48.732106,84.696754 47.846695,84.696754 C 46.7269,84.696754 45.834973,84.384254 45.170914,83.759254 C 44.51336,83.127745 44.184584,82.284647 44.184586,81.229958 C 44.184584,79.999493 44.59474,79.07176 45.415054,78.446754 C 46.241874,77.821761 47.472341,77.509261 49.106461,77.509254 L 51.625992,77.509254 L 51.625992,77.333473 C 51.625983,76.506658 51.352546,75.868638 50.805679,75.419411 C 50.265307,74.963691 49.503589,74.735827 48.520523,74.735817 C 47.895518,74.735827 47.286795,74.810696 46.694351,74.960426 C 46.1019,75.110175 45.532239,75.334784 44.985367,75.634254 L 44.985367,73.974098 C 45.642916,73.720203 46.280936,73.531401 46.899429,73.407692 C 47.517914,73.277495 48.120127,73.212391 48.70607,73.212379 C 50.288094,73.212391 51.469733,73.622546 52.250992,74.442848 C 53.032232,75.26317 53.422856,76.506658 53.422867,78.173317 M 65.649429,75.575661 C 66.098637,74.768379 66.635746,74.172676 67.260757,73.788551 C 67.885745,73.404448 68.621421,73.212391 69.467789,73.212379 C 70.607096,73.212391 71.486002,73.612781 72.104507,74.413551 C 72.72298,75.207831 73.032224,76.340643 73.032242,77.811989 L 73.032242,84.413551 L 71.225601,84.413551 L 71.225601,77.870583 C 71.225585,76.822413 71.040039,76.044419 70.668961,75.536598 C 70.297852,75.028795 69.731446,74.774889 68.969742,74.774879 C 68.038739,74.774889 67.303063,75.084134 66.762711,75.702614 C 66.222335,76.321112 65.952153,77.16421 65.952164,78.231911 L 65.952164,84.413551 L 64.145523,84.413551 L 64.145523,77.870583 C 64.145514,76.815903 63.959967,76.037909 63.588882,75.536598 C 63.217781,75.028795 62.644865,74.774889 61.870132,74.774879 C 60.952158,74.774889 60.222992,75.087389 59.682632,75.712379 C 59.142264,76.330877 58.872082,77.17072 58.872086,78.231911 L 58.872086,84.413551 L 57.065445,84.413551 L 57.065445,73.476051 L 58.872086,73.476051 L 58.872086,75.17527 C 59.282238,74.504707 59.773774,74.009916 60.346695,73.690895 C 60.919606,73.371896 61.599944,73.212391 62.387711,73.212379 C 63.181973,73.212391 63.855801,73.414213 64.409195,73.817848 C 64.969081,74.221504 65.382492,74.807441 65.649429,75.575661 M 85.981461,78.495583 L 85.981461,79.374489 L 77.719742,79.374489 C 77.797864,80.611472 78.168957,81.555481 78.833023,82.20652 C 79.503591,82.851053 80.43458,83.173318 81.625992,83.173317 C 82.316088,83.173318 82.983405,83.088683 83.627945,82.919411 C 84.278977,82.750142 84.923508,82.496236 85.561539,82.157692 L 85.561539,83.856911 C 84.916997,84.130348 84.256191,84.338682 83.579117,84.481911 C 82.902025,84.62514 82.215177,84.696754 81.51857,84.696754 C 79.773773,84.696754 78.390311,84.188942 77.368179,83.173317 C 76.352553,82.157694 75.844741,80.783998 75.844742,79.052223 C 75.844741,77.261866 76.326511,75.842596 77.290054,74.794411 C 78.260103,73.739734 79.56544,73.212391 81.20607,73.212379 C 82.677416,73.212391 83.839524,73.687651 84.692398,74.638161 C 85.551762,75.58218 85.981449,76.867986 85.981461,78.495583 M 84.184586,77.968239 C 84.171555,76.985173 83.894863,76.200669 83.354507,75.614723 C 82.820645,75.028795 82.11101,74.735827 81.225601,74.735817 C 80.222992,74.735827 79.418956,75.019029 78.813492,75.585426 C 78.21453,76.151841 77.869478,76.949366 77.778336,77.978004 L 84.184586,77.968239 M 87.885757,73.476051 L 89.682632,73.476051 L 91.928726,82.011208 L 94.165054,73.476051 L 96.284195,73.476051 L 98.530289,82.011208 L 100.76662,73.476051 L 102.56349,73.476051 L 99.702164,84.413551 L 97.583023,84.413551 L 95.229507,75.448708 L 92.866226,84.413551 L 90.747086,84.413551 L 87.885757,73.476051 M 109.53615,74.735817 C 108.5726,74.735827 107.81088,75.11343 107.25099,75.868629 C 106.69109,76.617335 106.41115,77.64598 106.41115,78.954567 C 106.41115,80.263165 106.68784,81.295065 107.24123,82.05027 C 107.80112,82.79897 108.56609,83.173318 109.53615,83.173317 C 110.49317,83.173318 111.25164,82.795714 111.81154,82.040504 C 112.37143,81.285299 112.65137,80.256654 112.65138,78.954567 C 112.65137,77.659001 112.37143,76.633611 111.81154,75.878395 C 111.25164,75.116686 110.49317,74.735827 109.53615,74.735817 M 109.53615,73.212379 C 111.09864,73.212391 112.32585,73.720203 113.21779,74.735817 C 114.10971,75.751451 114.55567,77.157699 114.55568,78.954567 C 114.55567,80.744935 114.10971,82.151184 113.21779,83.173317 C 112.32585,84.188942 111.09864,84.696754 109.53615,84.696754 C 107.96713,84.696754 106.73667,84.188942 105.84474,83.173317 C 104.95932,82.151184 104.51662,80.744935 104.51662,78.954567 C 104.51662,77.157699 104.95932,75.751451 105.84474,74.735817 C 106.73667,73.720203 107.96713,73.212391 109.53615,73.212379 M 123.86232,75.155739 C 123.66049,75.038561 123.43914,74.953925 123.19826,74.901833 C 122.96388,74.843248 122.70346,74.813952 122.41701,74.813942 C 121.40138,74.813952 120.62013,75.145982 120.07326,75.810036 C 119.53289,76.467596 119.26271,77.41486 119.26271,78.651833 L 119.26271,84.413551 L 117.45607,84.413551 L 117.45607,73.476051 L 119.26271,73.476051 L 119.26271,75.17527 C 119.64031,74.511217 120.13185,74.019682 120.73732,73.700661 C 121.34278,73.375151 122.07846,73.212391 122.94435,73.212379 C 123.06804,73.212391 123.20476,73.222156 123.35451,73.241676 C 123.50424,73.254708 123.67025,73.277495 123.85255,73.310036 L 123.86232,75.155739 M 125.69826,69.218239 L 127.5049,69.218239 L 127.5049,78.192848 L 132.86623,73.476051 L 135.16115,73.476051 L 129.36037,78.593239 L 135.40529,84.413551 L 133.06154,84.413551 L 127.5049,79.071754 L 127.5049,84.413551 L 125.69826,84.413551 L 125.69826,69.218239 M 144.86818,81.933083 L 146.8506,81.933083 L 146.8506,84.413551 L 144.86818,84.413551 L 144.86818,81.933083 M 144.86818,69.833473 L 146.8506,69.833473 L 146.8506,76.229958 L 146.65529,79.716286 L 145.07326,79.716286 L 144.86818,76.229958 L 144.86818,69.833473 M 151.74318,73.476051 L 153.54005,73.476051 L 153.54005,84.413551 L 151.74318,84.413551 L 151.74318,73.476051 M 151.74318,69.218239 L 153.54005,69.218239 L 153.54005,71.493629 L 151.74318,71.493629 L 151.74318,69.218239 M 165.80568,75.575661 C 166.25489,74.768379 166.792,74.172676 167.41701,73.788551 C 168.04199,73.404448 168.77767,73.212391 169.62404,73.212379 C 170.76335,73.212391 171.64225,73.612781 172.26076,74.413551 C 172.87923,75.207831 173.18847,76.340643 173.18849,77.811989 L 173.18849,84.413551 L 171.38185,84.413551 L 171.38185,77.870583 C 171.38184,76.822413 171.19629,76.044419 170.82521,75.536598 C 170.4541,75.028795 169.8877,74.774889 169.12599,74.774879 C 168.19499,74.774889 167.45931,75.084134 166.91896,75.702614 C 166.37859,76.321112 166.1084,77.16421 166.10841,78.231911 L 166.10841,84.413551 L 164.30177,84.413551 L 164.30177,77.870583 C 164.30176,76.815903 164.11622,76.037909 163.74513,75.536598 C 163.37403,75.028795 162.80111,74.774889 162.02638,74.774879 C 161.10841,74.774889 160.37924,75.087389 159.83888,75.712379 C 159.29851,76.330877 159.02833,77.17072 159.02834,78.231911 L 159.02834,84.413551 L 157.22169,84.413551 L 157.22169,73.476051 L 159.02834,73.476051 L 159.02834,75.17527 C 159.43849,74.504707 159.93002,74.009916 160.50294,73.690895 C 161.07586,73.371896 161.75619,73.212391 162.54396,73.212379 C 163.33822,73.212391 164.01205,73.414213 164.56544,73.817848 C 165.12533,74.221504 165.53874,74.807441 165.80568,75.575661 M 178.52052,82.772926 L 178.52052,88.573708 L 176.71388,88.573708 L 176.71388,73.476051 L 178.52052,73.476051 L 178.52052,75.136208 C 178.89812,74.485176 179.37338,74.003405 179.9463,73.690895 C 180.52573,73.371896 181.21583,73.212391 182.01662,73.212379 C 183.34473,73.212391 184.42221,73.739734 185.24904,74.794411 C 186.08236,75.849107 186.49903,77.235824 186.49904,78.954567 C 186.49903,80.673321 186.08236,82.060038 185.24904,83.114723 C 184.42221,84.169411 183.34473,84.696754 182.01662,84.696754 C 181.21583,84.696754 180.52573,84.540504 179.9463,84.228004 C 179.37338,83.908995 178.89812,83.423969 178.52052,82.772926 M 184.6338,78.954567 C 184.63379,77.632959 184.36036,76.597804 183.81349,75.849098 C 183.27312,75.093899 182.52768,74.716295 181.57716,74.716286 C 180.62664,74.716295 179.87794,75.093899 179.33107,75.849098 C 178.7907,76.597804 178.52052,77.632959 178.52052,78.954567 C 178.52052,80.276186 178.7907,81.314596 179.33107,82.069801 C 179.87794,82.818501 180.62664,83.192849 181.57716,83.192848 C 182.52768,83.192849 183.27312,82.818501 183.81349,82.069801 C 184.36036,81.314596 184.63379,80.276186 184.6338,78.954567 M 193.71584,74.735817 C 192.75229,74.735827 191.99057,75.11343 191.43068,75.868629 C 190.87078,76.617335 190.59083,77.64598 190.59084,78.954567 C 190.59083,80.263165 190.86753,81.295065 191.42091,82.05027 C 191.98081,82.79897 192.74578,83.173318 193.71584,83.173317 C 194.67286,83.173318 195.43132,82.795714 195.99123,82.040504 C 196.55111,81.285299 196.83106,80.256654 196.83107,78.954567 C 196.83106,77.659001 196.55111,76.633611 195.99123,75.878395 C 195.43132,75.116686 194.67286,74.735827 193.71584,74.735817 M 193.71584,73.212379 C 195.27833,73.212391 196.50554,73.720203 197.39748,74.735817 C 198.28939,75.751451 198.73536,77.157699 198.73537,78.954567 C 198.73536,80.744935 198.28939,82.151184 197.39748,83.173317 C 196.50554,84.188942 195.27833,84.696754 193.71584,84.696754 C 192.14682,84.696754 190.91635,84.188942 190.02443,83.173317 C 189.13901,82.151184 188.6963,80.744935 188.6963,78.954567 C 188.6963,77.157699 189.13901,75.751451 190.02443,74.735817 C 190.91635,73.720203 192.14682,73.212391 193.71584,73.212379 M 208.04201,75.155739 C 207.84018,75.038561 207.61882,74.953925 207.37794,74.901833 C 207.14356,74.843248 206.88315,74.813952 206.59669,74.813942 C 205.58106,74.813952 204.79981,75.145982 204.25294,75.810036 C 203.71258,76.467596 203.44239,77.41486 203.4424,78.651833 L 203.4424,84.413551 L 201.63576,84.413551 L 201.63576,73.476051 L 203.4424,73.476051 L 203.4424,75.17527 C 203.82,74.511217 204.31153,74.019682 204.91701,73.700661 C 205.52247,73.375151 206.25815,73.212391 207.12404,73.212379 C 207.24773,73.212391 207.38445,73.222156 207.53419,73.241676 C 207.68393,73.254708 207.84994,73.277495 208.03224,73.310036 L 208.04201,75.155739 M 211.72365,70.370583 L 211.72365,73.476051 L 215.42482,73.476051 L 215.42482,74.872536 L 211.72365,74.872536 L 211.72365,80.810036 C 211.72364,81.701966 211.84409,82.274882 212.08498,82.528786 C 212.33237,82.782694 212.83041,82.909647 213.57912,82.909645 L 215.42482,82.909645 L 215.42482,84.413551 L 213.57912,84.413551 C 212.19239,84.413551 211.23536,84.15639 210.70802,83.642067 C 210.18068,83.121235 209.91701,82.177225 209.91701,80.810036 L 209.91701,74.872536 L 208.59865,74.872536 L 208.59865,73.476051 L 209.91701,73.476051 L 209.91701,70.370583 L 211.72365,70.370583 M 222.76857,78.915504 C 221.31674,78.91551 220.31088,79.081525 219.75099,79.413551 C 219.19109,79.745587 218.91115,80.311993 218.91115,81.11277 C 218.91115,81.750794 219.11948,82.258606 219.53615,82.636208 C 219.95932,83.007303 220.53224,83.192849 221.2549,83.192848 C 222.25099,83.192849 223.04851,82.841287 223.64748,82.138161 C 224.25294,81.428528 224.55567,80.487774 224.55568,79.315895 L 224.55568,78.915504 L 222.76857,78.915504 M 226.35255,78.173317 L 226.35255,84.413551 L 224.55568,84.413551 L 224.55568,82.753395 C 224.14551,83.417459 223.63445,83.908995 223.02248,84.228004 C 222.41049,84.540504 221.66179,84.696754 220.77638,84.696754 C 219.65659,84.696754 218.76466,84.384254 218.1006,83.759254 C 217.44305,83.127745 217.11427,82.284647 217.11427,81.229958 C 217.11427,79.999493 217.52443,79.07176 218.34474,78.446754 C 219.17156,77.821761 220.40203,77.509261 222.03615,77.509254 L 224.55568,77.509254 L 224.55568,77.333473 C 224.55567,76.506658 224.28223,75.868638 223.73537,75.419411 C 223.19499,74.963691 222.43328,74.735827 221.45021,74.735817 C 220.82521,74.735827 220.21648,74.810696 219.62404,74.960426 C 219.03159,75.110175 218.46193,75.334784 217.91505,75.634254 L 217.91505,73.974098 C 218.5726,73.720203 219.21062,73.531401 219.82912,73.407692 C 220.4476,73.277495 221.04981,73.212391 221.63576,73.212379 C 223.21778,73.212391 224.39942,73.622546 225.18068,74.442848 C 225.96192,75.26317 226.35254,76.506658 226.35255,78.173317 M 239.15529,77.811989 L 239.15529,84.413551 L 237.35841,84.413551 L 237.35841,77.870583 C 237.3584,76.835434 237.15658,76.060695 236.75294,75.546364 C 236.34929,75.03205 235.74382,74.774889 234.93654,74.774879 C 233.96648,74.774889 233.20151,75.084134 232.64162,75.702614 C 232.08172,76.321112 231.80177,77.16421 231.80177,78.231911 L 231.80177,84.413551 L 229.99513,84.413551 L 229.99513,73.476051 L 231.80177,73.476051 L 231.80177,75.17527 C 232.23146,74.517728 232.73601,74.026192 233.31544,73.700661 C 233.90138,73.375151 234.5752,73.212391 235.33693,73.212379 C 236.59343,73.212391 237.54395,73.603015 238.18849,74.384254 C 238.83301,75.159003 239.15528,76.30158 239.15529,77.811989 M 244.53615,70.370583 L 244.53615,73.476051 L 248.23732,73.476051 L 248.23732,74.872536 L 244.53615,74.872536 L 244.53615,80.810036 C 244.53614,81.701966 244.65659,82.274882 244.89748,82.528786 C 245.14487,82.782694 245.64291,82.909647 246.39162,82.909645 L 248.23732,82.909645 L 248.23732,84.413551 L 246.39162,84.413551 C 245.00489,84.413551 244.04786,84.15639 243.52052,83.642067 C 242.99318,83.121235 242.72951,82.177225 242.72951,80.810036 L 242.72951,74.872536 L 241.41115,74.872536 L 241.41115,73.476051 L 242.72951,73.476051 L 242.72951,70.370583 L 244.53615,70.370583 M 251.06935,74.071754 L 253.1299,74.071754 L 253.1299,76.552223 L 251.06935,76.552223 L 251.06935,74.071754 M 251.06935,81.933083 L 253.1299,81.933083 L 253.1299,83.61277 L 251.52834,86.73777 L 250.26857,86.73777 L 251.06935,83.61277 L 251.06935,81.933083"
         id="text3417" />
    </g>
  </g>
</svg>
